<svg xmlns="http://www.w3.org/2000/svg" xmlns:xlink="http://www.w3.org/1999/xlink" style="position:absolute; width: 0; height: 0"><symbol viewBox="0 0 32 10.2" id="icon-alipay-bw"><path d="M15.7 5.7c.1 0 .1.1.2.1s.2-.1.3-.1c.4-.4.8-.7 1.1-1.2 0-.1.1-.1.1-.2s0-.1-.1-.1c-.2-.2-.3-.5-.5-.7-.3-.3-.7-.8-1.1-.5-.4.3-.8.6-1.1 1-.1.1-.1.2-.1.2 0 .6.9 1.2 1.2 1.5zm11.9 1.7l.1.1c.4.1.9-.7 1.1-.9v-.1s0-.1-.1-.1c-.1-.4-.7-1.3-1.1-1.1-.3.2-.6.5-.8.8-.1.1-.1.1-.1.2.1.5.6.9.9 1.1zm3.7-.3c-3.1.6-6.3 1-9.5 1.1-1.6.1-3.2.1-4.8 0-.8 0-1.6-.1-2.4-.1-.8-.1-1.6-.1-2.4-.2C11.1 7.6 10 7.4 9 7c-1-.3-2-.8-3-1.2-.6-.2-1.2-.4-1.7-.5-.5-.1-.9-.2-1.4-.2-.8 0-1.6.2-2.2.8-.4.4-.7.9-.7 1.5-.1 2.5 3.2 2.4 3.2 2.4C.7 9.6.6 8.1.6 7.8c0-.7.4-1.2 1-1.5 1-.4 2-.3 3 0 1 .4 1.9.9 2.8 1.4.9.5 1.7.9 2.7 1.2.8.3 1.6.5 2.4.7 6.4 1.3 15.4.3 16.4.2s1.1-.5 1.4-.9c.4-.4 1.2-1.1 1.5-1.5.4-.5-.1-.4-.5-.3z"></path><path d="M7.4 0h-.3c-.9 0-1.2 0-1.4.3v1.1H2.4V2h3.4v1.3H3.3v.6h5.1c0 .6-.6 1.6-1.3 2.5 0 0 .1 0 .1.1.1 0 .2.1.4.1.1 0 .3 0 .4.1.1.1.3.1.4.2h.1c1.1-1.4 1.6-2.9 1.7-3.6H7.4V1.9h3.5v-.5H7.4V0zm7.1 0c-.8 0-1.2 0-1.3.3 0 .1-.1.8-1 1.7-.8.8-1.3 1.1-1.3 1.1s0 .1.1.2.1.2.1.2.5-.2 1.2-.5v4.9c.5 0 1.1.1 1.7.2V1.7c.4-.5.7-1 .8-1.7h-.3zm14.1.7c-.3 0-1.5 0-2.7.1V0h-.3c-.8 0-1.2 0-1.3.3v.6c-.8 0-1.4.1-1.7.1V.6h-.3c-.8 0-1.2 0-1.3.3V3h3.4v1.5h-2.3v.6h2.3v3c.6 0 1.1-.1 1.7-.1V5.1h2.5v-.6h-2.5V3H29v-.3c.1 0 .4 0 .4-.4.1-.4.1-.7.1-.8-.2-.2-.2-.8-.9-.8zm-.9 1.8h-5.3v-1c.6 0 4.8-.2 5.1-.2.3 0 .4.1.3.3 0 .2 0 .7-.1.9zM19.2 0h-.3c-.8 0-1.2 0-1.3.3V2h-3.2v.6h3.2v5.7h1.7V2.5h.9v-.6h-.9V0zM7.1 7.5c-.2-.2-.4-.3-.7-.4-1 1-2.2 1.9-3.3 1.9-1 0-2-.5-2-1.7 0-.9.9-1.2 1.3-1.4-.1.1-.2.1-.3.1H2c-.1 0-.2.1-.3.1-.1 0-.2.1-.3.1h-.1c-.1.2-.2.3-.2.3-.5.5-.5.9-.5 1.2 0 .4.1 1.9 2.6 2h.1c1.8 0 3.3-.9 4.5-2 0 0-.1 0-.1-.1-.3 0-.4-.1-.6-.1z"></path></symbol><symbol viewBox="0 0 32 10.2" id="icon-alipay"><style><![CDATA[.st0{fill:#010101}.st1,.st2{fill-rule:evenodd;clip-rule:evenodd;fill:#fff}.st2{fill:#144ba0}.st3{fill:#fecf0c}.st4{fill:#5b3c18}.st5{fill:#fff}.st6{fill:#d1d3d4}.st7{fill:#0a67b2}.st8{fill:#faa634}.st9{fill:#ed1c24}.st10{fill:#faa61a}.st11{fill:#0078a9}.st12{fill:#03a550}.st13{fill:#0c72ba}.st14{fill:#eb2227}.st15{fill:#f58220}.st16{fill:#14467a}.st17{fill:#0078bf}.st18{fill:#005189}.st19{fill:#ed7220}.st20{fill:#1e439b}.st21{fill:#a7a9ac}]]></style><path class="st19" d="M15.7 5.7c.1 0 .1.1.2.1s.2-.1.3-.1c.4-.4.8-.7 1.1-1.2 0-.1.1-.1.1-.2s0-.1-.1-.1c-.2-.2-.3-.5-.5-.7-.3-.3-.7-.8-1.1-.5-.4.3-.8.6-1.1 1-.1.1-.1.2-.1.2 0 .6.9 1.2 1.2 1.5zm11.9 1.7l.1.1c.4.1.9-.7 1.1-.9v-.1s0-.1-.1-.1c-.1-.4-.7-1.3-1.1-1.1-.3.2-.6.5-.8.8-.1.1-.1.1-.1.2.1.5.6.9.9 1.1zm3.7-.3c-3.1.6-6.3 1-9.5 1.1-1.6.1-3.2.1-4.8 0-.8 0-1.6-.1-2.4-.1-.8-.1-1.6-.1-2.4-.2C11.1 7.6 10 7.4 9 7c-1-.3-2-.8-3-1.2-.6-.2-1.2-.4-1.7-.5-.5-.1-.9-.2-1.4-.2-.8 0-1.6.2-2.2.8-.4.4-.7.9-.7 1.5-.1 2.5 3.2 2.4 3.2 2.4C.7 9.6.6 8.1.6 7.8c0-.7.4-1.2 1-1.5 1-.4 2-.3 3 0 1 .4 1.9.9 2.8 1.4.9.5 1.7.9 2.7 1.2.8.3 1.6.5 2.4.7 6.4 1.3 15.4.3 16.4.2s1.1-.5 1.4-.9c.4-.4 1.2-1.1 1.5-1.5.4-.5-.1-.4-.5-.3z"></path><path class="st20" d="M7.4 0h-.3c-.9 0-1.2 0-1.4.3v1.1H2.4V2h3.4v1.3H3.3v.6h5.1c0 .6-.6 1.6-1.3 2.5 0 0 .1 0 .1.1.1 0 .2.1.4.1.1 0 .3 0 .4.1.1.1.3.1.4.2h.1c1.1-1.4 1.6-2.9 1.7-3.6H7.4V1.9h3.5v-.5H7.4V0zm7.1 0c-.8 0-1.2 0-1.3.3 0 .1-.1.8-1 1.7-.8.8-1.3 1.1-1.3 1.1s0 .1.1.2.1.2.1.2.5-.2 1.2-.5v4.9c.5 0 1.1.1 1.7.2V1.7c.4-.5.7-1 .8-1.7h-.3zm14.1.7c-.3 0-1.5 0-2.7.1V0h-.3c-.8 0-1.2 0-1.3.3v.6c-.8 0-1.4.1-1.7.1V.6h-.3c-.8 0-1.2 0-1.3.3V3h3.4v1.5h-2.3v.6h2.3v3c.6 0 1.1-.1 1.7-.1V5.1h2.5v-.6h-2.5V3H29v-.3c.1 0 .4 0 .4-.4.1-.4.1-.7.1-.8-.2-.2-.2-.8-.9-.8zm-.9 1.8h-5.3v-1c.6 0 4.8-.2 5.1-.2.3 0 .4.1.3.3 0 .2 0 .7-.1.9zM19.2 0h-.3c-.8 0-1.2 0-1.3.3V2h-3.2v.6h3.2v5.7h1.7V2.5h.9v-.6h-.9V0zM7.1 7.5c-.2-.2-.4-.3-.7-.4-1 1-2.2 1.9-3.3 1.9-1 0-2-.5-2-1.7 0-.9.9-1.2 1.3-1.4-.1.1-.2.1-.3.1H2c-.1 0-.2.1-.3.1-.1 0-.2.1-.3.1h-.1c-.1.2-.2.3-.2.3-.5.5-.5.9-.5 1.2 0 .4.1 1.9 2.6 2h.1c1.8 0 3.3-.9 4.5-2 0 0-.1 0-.1-.1-.3 0-.4-.1-.6-.1z"></path></symbol><symbol viewBox="0.9 195 612 387.9" id="icon-american-express"><path fill="#FFF" d="M605.8 555.8c0 11-8.9 19.9-19.9 19.9H28c-11 0-19.9-8.9-19.9-19.9V222c0-11 8.9-19.9 19.9-19.9h557.9c11 0 19.9 8.9 19.9 19.9v333.8z"></path><path fill="#D0D2D3" d="M585.9 582.8H28C13.1 582.8.9 570.7.9 555.7V222c0-14.9 12.1-27 27.1-27h557.9c14.9 0 27 12.1 27 27.1v333.7c0 14.9-12.1 27-27 27zM28 209.2c-7 0-12.8 5.7-12.8 12.8v333.7c0 7.1 5.7 12.8 12.8 12.8h557.9c7 0 12.8-5.7 12.8-12.8V222c0-7.1-5.7-12.8-12.8-12.8H28z"></path><path d="M393.9 409.6h46V422H408v10.7h31v10.9h-31v11.3h31.9v12h-46M528.7 432c17.3.9 18.7 9.5 18.7 18.7 0 10.7-8.8 16.5-18 16.5h-29.5v-12.3h23c3.9 0 9.7 0 9.7-5.5 0-2.6-1-4.3-5.2-4.7-1.8-.3-8.7-.6-9.7-.7-15.6-.4-19.3-8.2-19.3-17.6 0-10.7 7.6-16.6 16.8-16.6h29.5V422h-21.6c-4.9 0-10.2-.6-10.2 5 0 3.5 2.6 4.2 5.9 4.5 1.2.1 8.9.5 9.9.5zm-53 0c17.3.9 18.7 9.5 18.7 18.7 0 10.7-8.8 16.5-18 16.5h-29.5v-12.3h23c3.9 0 9.7 0 9.7-5.5 0-2.6-1-4.3-5.2-4.7-1.9-.3-8.7-.6-9.7-.7-15.6-.4-19.2-8.2-19.2-17.6 0-10.7 7.5-16.6 16.8-16.6h29.5V422h-21.6c-4.9 0-10.2-.6-10.2 5 0 3.5 2.6 4.2 5.9 4.5 1.1.1 8.8.5 9.8.5zM309 409.8h-49.4l-16.1 17.8-15.6-17.9h-55.4V467h53.6l16.9-19 16.5 19.1h27v-19.4h18.9c7.3 0 20.6-.2 20.6-20.3 0-14.4-10.1-17.6-17-17.6zm-90.2 45.1h-32.4v-11.3h31v-10.9h-31V422l34.2.1 13.7 15.6-15.5 17.2zm53.7 6.6l-20.2-23.9 20.2-22.4v46.3zm31.8-25.7h-17.5V422h17.6c5.9 0 7.7 3.8 7.7 6.6 0 3.9-2.1 7.2-7.8 7.2zm72.6 5.2c7.7-3.8 9.7-8.9 9.7-15.9 0-12.3-10-15.3-16.9-15.3h-36.6v57.3h14.1v-20.2h18.4c4.9 0 6.8 4.9 6.9 9.7l.4 10.5h13.7l-.5-11.8c0-9.2-2.5-13.6-9.2-14.3zm-12.1-6h-17.5v-13h17.6c5.9 0 7.7 3.8 7.7 6.6 0 3.9-2.1 6.4-7.8 6.4zm-26-124.3h14.1V368h-14.1zm-115.1.1h46v12.3h-31.9v10.8h31v10.9h-31v11.3h31.9v12h-46m98-26.1c7.7-3.8 9.7-8.9 9.7-15.9 0-12.3-10-15.3-16.9-15.3H278v57.3h14.1v-20.2h18.4c4.9 0 6.8 4.9 6.9 9.7l.4 10.5h13.7l-.5-11.8c0-9.2-2.6-13.5-9.3-14.3zm-12.1-5.9h-17.5v-13h17.6c5.9 0 7.7 3.8 7.7 6.6 0 3.8-2 6.4-7.8 6.4zm-118.3-25.3L174 349.2l-17.2-38.4h-22.1V366l-24.6-55.2H91.6l-25.1 57.3h14.8l5.5-12.8h28.1l5.6 12.8h28.3v-42.5l18.8 42.5h12.8l19.2-41.8v41.8h14.1v-57.3h-22.4zm-99.1 32.1l8.4-20 8.7 20H92.2zM498 310.8v39.7l-23.7-39.7h-20.8v53.8l-24-53.8H411l-19.4 44.4s-8.2 0-9-.2c-3.4-.7-8.7-3.1-8.8-13.2v-4.2c0-13.4 7.3-14.4 16.6-14.4h8.7v-12.4h-18.4c-6.4 0-20.3 4.9-20.8 28.4-.3 15.9 6.6 28.9 22.2 28.9h18.5l5.5-12.8h28.1l5.6 12.8h27.7v-41.9l25.3 41.9H512v-57.3h-14zM411.6 343l8.4-20 8.8 20h-17.2z" fill="#0078A9"></path></symbol><symbol viewBox="-254.6 224.5 612 356.9" id="icon-arrow-down--thin"><path d="M-203.6 224.6l-50.9 50.9 306 306 306-306-50.9-50.9-255.2 255-255-255z"></path></symbol><symbol viewBox="0 90 612 407" id="icon-arrow-down"><path d="M306 497l306-306L511 90 306 295 101 90 0 191"></path></symbol><symbol viewBox="0 0 16 16" id="icon-arrow-left--thin"><path d="M10.5 16a1 1 0 0 1-.71-.29l-7-7a1 1 0 0 1 0-1.41l7-7a1 1 0 0 1 1.41 1.41L4.91 8l6.29 6.29a1 1 0 0 1-.7 1.71z"></path></symbol><symbol viewBox="0 0 8 8" id="icon-arrow-left"><path d="M5.7 8c-.2 0-.4-.1-.5-.2L1.7 4.6c-.3-.3-.3-.7 0-1.1L5.2.3c.3-.3.7-.4 1-.1s.4.7.1 1c0 .1-.1.1-.1.1L3.3 4l2.9 2.7c.3.3.3.7 0 1.1-.1.1-.3.2-.5.2z"></path></symbol><symbol viewBox="0 0 16 16" id="icon-arrow-right--thin"><path d="M5.5 16a1 1 0 0 1-.71-1.71L11.09 8l-6.3-6.29A1 1 0 0 1 6.21.29l7 7a1 1 0 0 1 0 1.41l-7 7a1 1 0 0 1-.71.3z"></path></symbol><symbol viewBox="0 0 8 8" id="icon-arrow-right"><path d="M2.3 8c-.4 0-.7-.3-.7-.7 0-.2.1-.4.2-.5L4.7 4 1.8 1.4c-.3-.2-.4-.7-.2-1s.7-.4 1-.2c.1 0 .1.1.1.1l3.5 3.2c.3.3.3.8 0 1.1L2.8 7.8c-.1.1-.3.2-.5.2z"></path></symbol><symbol viewBox="0 193 612 936.5" id="icon-arrow-up--stem"><path d="M612 499L377.4 264.4v-.4L306 193 0 499l101 101 133.6-133.6v663.1h142.8V466.4L511 600"></path></symbol><symbol viewBox="0 0 16 16" id="icon-arrow-up--thin"><path d="M15 12.5a1 1 0 0 1-.71-.29L8 5.91l-6.29 6.3a1 1 0 0 1-1.42-1.42l7-7a1 1 0 0 1 1.41 0l7 7a1 1 0 0 1-.7 1.71z"></path></symbol><symbol viewBox="0 0 8 8" id="icon-arrow-up"><path d="M7.25 6.5a.75.75 0 0 1-.55-.24L4 3.35 1.3 6.26a.75.75 0 1 1-1.1-1l3.25-3.5a.77.77 0 0 1 1.1 0L7.8 5.24a.75.75 0 0 1-.55 1.26z"></path></symbol><symbol viewBox="0 0 100 100" id="icon-customer-email"><path d="M92 14.2H8c-4.4 0-8 3.6-8 8v55.6c0 4.4 3.6 8 8 8h84c4.4 0 8-3.6 8-8V22.2c0-4.4-3.6-8-8-8zM39.4 48.4L7 71.7V25.1l32.4 23.3zM15.1 21.2h69.7L50 46.2l-34.9-25zm31.2 32.1L50 56l3.7-2.7 35.6 25.5H10.7l35.6-25.5zm14.3-4.9L93 25.1v46.6L60.6 48.4z"></path></symbol><symbol viewBox="0 0 100 100" id="icon-customer-phone"><path d="M76.2 0H23.8C19 0 15 3.9 15 8.8v82.5c0 4.8 3.9 8.8 8.8 8.8h52.5c4.8 0 8.8-3.9 8.8-8.8V8.8C85 3.9 81 0 76.2 0zM50 92.1c-2.8 0-5.1-2.3-5.1-5.1s2.3-5.1 5.1-5.1 5.1 2.3 5.1 5.1-2.3 5.1-5.1 5.1zm26.2-15.5H23.8V15.7h52.3v60.9z"></path></symbol><symbol viewBox="0 0 16 16" id="icon-details"><path d="M8 0C3.6 0 0 3.6 0 8s3.6 8 8 8 8-3.6 8-8-3.6-8-8-8zm0 14.8c-3.7 0-6.8-3-6.8-6.8s3-6.8 6.8-6.8 6.8 3 6.8 6.8-3.1 6.8-6.8 6.8zm0-4.1c-.3 0-.5.1-.7.3s-.3.4-.3.6c0 .3.1.5.3.7.2.2.4.2.6.2.2 0 .4-.1.6-.2.2-.2.3-.4.3-.7 0-.3-.1-.5-.3-.6-.1-.2-.3-.3-.5-.3zm1.6-7c-.4-.2-1-.3-1.5-.3-.6 0-1.2.1-1.6.4-.5.2-.9.6-1.1.9-.3.4-.4.8-.4 1.2 0 .2.1.4.2.5.2.2.3.2.6.2.4 0 .6-.2.8-.7.1-.4.3-.8.5-1 .2-.2.5-.3 1-.3.4.1.7.2.9.4.2.2.4.5.4.8 0 .2 0 .3-.1.5l-.3.3c-.1.2-.3.3-.6.6-.3.2-.5.4-.7.6-.2.2-.3.4-.4.7-.1.2-.2.5-.2.8 0 .3.1.5.2.6.1.1.3.2.5.2.4 0 .6-.2.7-.6 0-.2.1-.3.1-.4.1-.1.2-.1.2-.2s.1-.2.2-.3l.3-.3c.5-.4.8-.8 1-.9.2-.2.4-.4.5-.7.2-.3.2-.6.2-.9 0-.4-.1-.8-.4-1.2-.2-.4-.5-.7-1-.9z"></path></symbol><symbol viewBox="0 203.1 612 387.9" id="icon-discover"><path fill="#FFF" d="M604.9 563.9c0 11-8.9 19.9-19.9 19.9H27.1c-11 0-19.9-8.9-19.9-19.9V230.1c0-11 8.9-19.9 19.9-19.9H585c11 0 19.9 8.9 19.9 19.9v333.8z"></path><ellipse fill="#F58220" cx="305.5" cy="392.7" rx="30.4" ry="29.3"></ellipse><path fill="#D0D2D3" d="M585 590.9H27.1C12.2 590.9 0 578.8 0 563.8V230.1c0-14.9 12.1-27 27.1-27H585c14.9 0 27 12.1 27 27.1v333.7c0 14.9-12.1 27-27 27zM27.1 217.3c-7 0-12.8 5.7-12.8 12.8v333.7c0 7.1 5.7 12.8 12.8 12.8H585c7 0 12.8-5.7 12.8-12.8V230.1c0-7.1-5.7-12.8-12.8-12.8H27.1z"></path><path fill="#F58220" d="M160.2 583.2h423.4c11.3 0 20.4-9.1 20.4-20.4V419.5c-40.7 25.8-193.9 114.6-443.8 163.7z"></path><path fill="#071923" d="M132.1 363.2h-16.4v57.3H132c8.7 0 14.9-2.1 20.4-6.6 6.5-5.4 10.4-13.6 10.4-22 0-17-12.6-28.7-30.7-28.7zm13 43c-3.5 3.2-8.1 4.6-15.3 4.6h-3v-37.9h3c7.2 0 11.6 1.3 15.3 4.6 3.9 3.4 6.2 8.8 6.2 14.2 0 5.6-2.3 11.1-6.2 14.5zm22.9-43h11.2v57.3H168v-57.3zm38.4 22c-6.7-2.5-8.7-4.1-8.7-7.2 0-3.6 3.5-6.3 8.3-6.3 3.3 0 6.1 1.4 9 4.6l5.8-7.6c-4.8-4.2-10.6-6.4-16.8-6.4-10.1 0-17.9 7-17.9 16.4 0 7.9 3.6 11.9 14.1 15.7 4.4 1.5 6.6 2.6 7.7 3.3 2.2 1.5 3.4 3.5 3.4 5.9 0 4.7-3.7 8.1-8.7 8.1-5.3 0-9.6-2.6-12.2-7.6l-7.2 7c5.1 7.5 11.3 10.9 19.8 10.9 11.6 0 19.7-7.7 19.7-18.8.2-9.3-3.5-13.4-16.3-18zm20 6.7c0 16.8 13.2 29.9 30.2 29.9 4.8 0 8.9-.9 14-3.3v-13.1c-4.5 4.5-8.4 6.3-13.5 6.3-11.2 0-19.2-8.2-19.2-19.8 0-11 8.2-19.7 18.7-19.7 5.3 0 9.4 1.9 14 6.4v-13.1c-4.9-2.5-8.9-3.5-13.7-3.5-16.9-.1-30.5 13.2-30.5 29.9zm134.8 9.8l-15.3-38.5h-12.2l24.3 58.7h6l24.8-58.7h-12.1m17.1 57.3h31.7v-9.7H405v-15.5h19.7v-9.7H405v-12.7h20.5v-9.7h-31.7m75.9 16.9c0-10.7-7.4-16.9-20.3-16.9h-16.6v57.3h11.3v-23h1.5l15.5 23h13.7l-18-24.1c8.3-1.8 12.9-7.5 12.9-16.3zm-22.4 9.4h-3.2v-17.4h3.4c7 0 10.7 2.9 10.7 8.5 0 5.8-3.7 8.9-10.9 8.9z"></path></symbol><symbol viewBox="0 0 96 30" id="icon-dl_iphone"><path d="M38.6 9.5c-.1-.1-.2-.1-.4-.1-.3 0-.5.1-.6.3-.1.2-.2.4-.3.7H39c0-.5-.1-.8-.4-.9zm28.9 0c-.3 0-.5.1-.7.3-.2.2-.3.5-.3.9s.1.7.2.9.4.3.7.3c.3 0 .5-.1.7-.3.2-.2.3-.5.3-.9s-.1-.7-.2-.9c-.2-.2-.4-.3-.7-.3zm-21.7 1.7c.3-.3.4-.7.4-1.2s-.1-.9-.4-1.2c-.3-.3-.7-.5-1.2-.5h-.7v3.4h.7c.5 0 .9-.1 1.2-.5zM31.4 17h-1.6v1.9h1.6c.6 0 1-.4 1-.9 0-.6-.4-1-1-1zm3.1-7.5c-.1-.1-.2-.1-.4-.1-.3 0-.5.1-.6.3-.1.2-.2.4-.3.7h1.6c.1-.5-.1-.8-.3-.9zm12 7.4c-1.3 0-2.1 1-2.1 2.3 0 1.3.8 2.3 2.1 2.3s2.1-1 2.1-2.3c0-1.3-.8-2.3-2.1-2.3zm3.4-7.4c-.3 0-.5.1-.7.3-.2.2-.3.5-.3.9s.1.7.2.9.4.3.7.3c.3 0 .5-.1.7-.3.2-.2.3-.5.3-.9s-.1-.7-.2-.9c-.2-.2-.5-.3-.7-.3zm26.6 2.3c.2 0 .4-.1.6-.3.2-.2.3-.4.3-.7v-.5c0-.3-.1-.5-.3-.7-.2-.2-.4-.2-.6-.2-.3 0-.5.1-.7.3-.2.2-.3.5-.3.8s.1.6.3.9c.2.3.4.4.7.4zm9.7 5.2h-1.6v1.9h1.6c.6 0 1-.4 1-.9.1-.6-.4-1-1-1zM96 27V3c0-1.7-1.2-3-2.8-3H2.8C1.2 0 0 1.4 0 3v24c0 1.7 1.2 3 2.8 3h90.5c1.5 0 2.7-1.3 2.7-3zM75.1 9.2c.3-.4.7-.5 1.2-.5s.8.2 1.1.6v-2h.9v5.4h-.8V12c-.2.5-.6.7-1.1.7-.5 0-.9-.2-1.2-.6-.3-.4-.5-.9-.5-1.5s.1-1 .4-1.4zm-2.6.3c-.1-.1-.3-.2-.5-.2s-.4 0-.6.1c-.1.1-.2.2-.2.4h-1c0-.4.2-.7.5-.9.3-.1.7-.2 1.3-.2.8 0 1.3.3 1.5.8.1.2.1.4.1.7v2.4h-.8l-.1-.5c-.2.4-.6.6-1.1.6-.5 0-.9-.1-1.1-.4-.3-.2-.4-.5-.4-.9s.1-.6.4-.8.7-.3 1.1-.3c.3 0 .7 0 1 .1V10c.1-.2 0-.3-.1-.5zM43 7.5h1.7c.8 0 1.4.2 1.9.7.5.5.7 1.1.7 1.9 0 .8-.2 1.4-.7 1.8-.5.5-1.1.7-1.9.7H43V7.5zm-6 1.7c.3-.4.8-.5 1.3-.5s.9.2 1.2.6l.3.6c.1.2.1.4.1.6v.5h-2.5c0 .3.1.6.2.8.1.2.4.3.6.3.4 0 .6-.2.7-.5h.9c-.1.4-.2.7-.5.9-.3.2-.7.3-1.1.3-.5 0-.9-.2-1.3-.5-.4-.4-.5-.9-.5-1.5.1-.7.2-1.2.6-1.6zm-7.6-.4h.9v.8c.2-.5.6-.8 1-.8.1 0 .2 0 .3.1v.9h-.4c-.6 0-.9.4-.9 1.3v1.7h-.9v-4zm-14.9-.6c.6-.6 1.6-1.2 2.4-1.2.1 1-.3 1.9-.9 2.6-.6.7-1.5 1.2-2.4 1.1-.1-.9.4-1.9.9-2.5zM19.1 21c-.7 1-1.3 1.9-2.4 2-1.1 0-1.4-.6-2.6-.6-1.2 0-1.6.6-2.6.6S9.7 22 9 21c-1.4-2-2.4-5.6-1-8.1.7-1.2 1.9-2 3.3-2 1 0 2 .7 2.6.7.6 0 1.8-.9 3.1-.7.5 0 2 .2 2.9 1.6-.1 0-1.7 1-1.7 3 0 2.4 2.1 3.2 2.1 3.2-.1.1-.4 1.2-1.2 2.3zm7.6 1.8h-1.3v-5.1h1.3v5.1zm-.7-5.7c-.4 0-.8-.4-.8-.8s.4-.8.8-.8.8.3.8.8-.4.8-.8.8zm2.1-6.7H26v2.2h-.9V7.5h3.2v.8H26v1.3h2.1v.8zm3.5 9.9h-1.8v2.5h-1.5v-7h3.3c1.5 0 2.4 1 2.4 2.3 0 1.1-.9 2.2-2.4 2.2zm1.2-8.2c-.4-.4-.5-.9-.5-1.5s.2-1.1.5-1.5c.3-.4.8-.5 1.3-.5s.9.2 1.2.6l.3.6c.1.2.1.4.1.6v.5h-2.5c0 .3.1.6.2.8.1.2.4.3.6.3.4 0 .6-.2.7-.5h.9c-.1.4-.2.7-.5.9-.3.2-.7.3-1.1.3-.4 0-.8-.2-1.2-.6zm8.7 10.7H40v-3h-3.3v3h-1.5v-7h1.5v2.8H40v-2.8h1.5v7zm5 .1c-2.1 0-3.7-1.5-3.7-3.6s1.6-3.6 3.7-3.6 3.7 1.5 3.7 3.6-1.6 3.6-3.7 3.6zm3.3-10.2c-.5 0-1-.2-1.3-.5-.4-.4-.5-.9-.5-1.5 0-.7.2-1.2.5-1.5.3-.3.8-.5 1.3-.5.3 0 .5 0 .7.1.3.1.5.2.6.4.4.4.5.9.5 1.5s-.2 1.1-.5 1.5c-.3.3-.7.5-1.3.5zm8 10.1h-1.4L53 18.2v4.6h-1.5v-7H53l3.3 4.4v-4.4h1.5v7zm-1.2-10.2h-.9l-.7-2.3-.7 2.3h-.9l-1.3-3.8h1l.8 2.7.7-2.5h.8l.7 2.5.8-2.7h.9l-1.2 3.8zm2.1-3.8h.8l.1.7c.3-.5.7-.8 1.2-.8s.8.2 1.1.5c.2.3.4.7.4 1.2v2.2h-.9v-2.2c0-.3-.1-.5-.2-.6s-.3-.2-.6-.2c-.2 0-.5.1-.6.3-.2.2-.3.5-.3 1v1.8h-.9V8.8zm5.7 8.2h-3.5v1.5h3.4v1.3h-3.4v1.6h3.5v1.3h-5v-7h5V17zm.1-4.4h-.9V7.2h.9v5.4zm1.6-.4c-.4-.4-.5-.9-.5-1.5 0-.7.2-1.2.5-1.5.3-.3.8-.5 1.3-.5.3 0 .5 0 .7.1.2.1.4.2.6.4.4.4.5.9.5 1.5s-.2 1.1-.5 1.5c-.3.3-.8.5-1.3.5s-.9-.2-1.3-.5zm7.6 10.6l-.4-1.2h-3l-.4 1.2h-1.7l2.7-7h1.9l2.7 7h-1.8zm5.9-2.5h-1.8v2.5h-1.5v-7h3.3c1.5 0 2.4 1 2.4 2.3 0 1.1-.9 2.2-2.4 2.2zm6.9 0h-1.8v2.5h-1.5v-7h3.3c1.5 0 2.4 1 2.4 2.3-.1 1.1-.9 2.2-2.4 2.2zM79.4 17h-1.6v1.9h1.6c.6 0 1-.4 1-.9 0-.6-.4-1-1-1zm-8.8 3.3h2.2l-1.1-3-1.1 3zm.5-8.8c0 .1.1.3.2.4.1.1.3.2.6.2s.5-.1.6-.3c.2-.2.3-.4.3-.6-.4-.2-.7-.2-1-.2-.5 0-.7.1-.7.5z"></path></symbol><symbol viewBox="0 0 16 16" id="icon-heart-fill"><path d="M14.7 2.3c-.8-.8-2-1.3-3.2-1.3s-2.3.4-3.1 1.3l-.4.4-.4-.4C6.8 1.4 5.6 1 4.5 1c-1.2 0-2.4.4-3.2 1.3C.5 3.1 0 4.2 0 5.4c0 1.2.5 2.3 1.3 3.1l6.3 6.3c.1.2.2.2.4.2s.3-.1.4-.2l6.3-6.3c.8-.8 1.3-2 1.3-3.2s-.5-2.2-1.3-3z"></path></symbol><symbol viewBox="0 0 16 16" id="icon-heart-outline"><path d="M14.7 2.3C13 .6 10.1.6 8.4 2.3l-.4.4-.4-.4C6.8 1.4 5.6 1 4.5 1c-1.2 0-2.4.4-3.2 1.3C.5 3.1 0 4.2 0 5.4c0 1.2.5 2.3 1.3 3.1l6.3 6.3c.1.2.2.2.4.2s.3-.1.4-.2l6.3-6.3c.8-.8 1.3-2 1.3-3.2s-.5-2.2-1.3-3zm-.9 5.4L8 13.5 2.2 7.7c-.6-.6-1-1.4-1-2.3 0-.9.3-1.7.9-2.3.6-.6 1.4-.9 2.3-.9.9 0 1.7.3 2.3.9l.9.9c.2.2.6.2.9 0l.8-.8c1.2-1.2 3.3-1.2 4.5 0 .6.6.9 1.4.9 2.3s-.3 1.6-.9 2.2z"></path></symbol><symbol viewBox="-305 297 99.9 100" id="icon-ig"><path d="M-225.7 297h-58.7c-11.4 0-20.6 9.3-20.6 20.6v58.8c0 11.4 9.3 20.6 20.6 20.6h58.7c11.4 0 20.6-9.3 20.6-20.6v-58.7c0-11.4-9.3-20.7-20.6-20.7zm-58.8 7.7h58.7c7.1 0 12.9 5.8 12.9 12.9V333H-229c-5-9.4-14.8-15.9-26.2-15.9s-21.2 6.5-26.2 15.9h-16.1v-15.4c.1-7.1 5.9-12.9 13-12.9zm29.4 20.2c12.2 0 22.1 9.9 22.1 22.1s-9.9 22.1-22.1 22.1c-12.2 0-22.1-9.9-22.1-22.1s10-22.1 22.1-22.1zm29.4 64.4h-58.7c-7.1 0-12.9-5.8-12.9-12.9v-35.6h13.1c-.4 2-.7 4.1-.7 6.3 0 16.4 13.4 29.8 29.8 29.8s29.8-13.4 29.8-29.8c0-2.2-.3-4.2-.7-6.3h13.1v35.6c.1 7.1-5.7 12.9-12.8 12.9z"></path><circle cx="-255.1" cy="347" r="9.2"></circle></symbol><symbol viewBox="0.9 195 612 387.9" id="icon-jcb"><path fill="#FFF" d="M605.8 555.8c0 11-8.9 19.9-19.9 19.9H28c-11 0-19.9-8.9-19.9-19.9V222c0-11 8.9-19.9 19.9-19.9h557.9c11 0 19.9 8.9 19.9 19.9v333.8z"></path><path fill="#D0D2D3" d="M585.9 582.8H28C13.1 582.8.9 570.7.9 555.7V222c0-14.9 12.1-27 27.1-27h557.9c14.9 0 27 12.1 27 27.1v333.7c0 14.9-12.1 27-27 27zM28 209.2c-7 0-12.8 5.7-12.8 12.8v333.7c0 7.1 5.7 12.8 12.8 12.8h557.9c7 0 12.8-5.7 12.8-12.8V222c0-7.1-5.7-12.8-12.8-12.8H28z"></path><path fill="#00A44F" d="M413.4 401.9c.7 22.3 1.5 45.3.4 68-.7 8.9-6.3 17.5-14.5 22.7-6.3 4.1-14.1 4.5-22.3 4.8l-29.5-.4-.2-189.1c1.5-12.6 10.8-23.4 22.7-26.8 14.5-1.9 27.9-1.1 43.1-1.5l.7 9.7v107.4l-.4.4v4.8z"></path><path fill="#0872B9" d="M199.4 394.8v-89.2c1.9-10 10-19.3 19.7-23 14.5-4.5 31.2-1.8 46.1-2.2.7 14.5 0 32.7.4 45.3l.7 116.3c-1.9 17.8 4.8 42-17.5 52-14.1 7.1-33.1 2.6-49 4.1l-.4-2.6V394.8z"></path><path fill="#FFF" d="M199.4 398.5c5.9 7.8 14.1 13.7 24.1 14.1 12.3 1.1 28.2 2.2 36.4-9.3 5.6-5.9 2.2-14.1 3.4-21.9l-.4-14.1c-7.1-1.5-13.4 0-21.6-.4-4.1 15.2 6.7 32.3-10.8 40.1-4.1 1.1-10 .4-14.1-2.2-6.7-1.5-3-12.3-11.9-9.3l-5.2-.7v3.7z"></path><path fill="#EA2127" d="M339.5 292.7l.4 180.9c-2.6 8.5-9.3 17.8-18.6 21.2-14.1 4.8-31.6 2.6-47.2 2.6l-.7-190.6c.7-8.9 6.7-16.7 14.5-21.5 5.6-3.7 12.3-4.8 19.3-5.2h31.6l.7 12.6z"></path><path fill="#FFF" d="M336.5 367.3c.7 2.2 0 4.1.4 6.7-11.1-3-24.9-6.3-34.9 1.9-3.7 4.5-5.9 8.9-5.6 14.9 1.1 6.7 5.2 13 11.5 15.6 9.7 3 19.7.4 28.6-1.9.4 1.9.7 4.5 0 5.9h-42.7c-7.4-1.5-13.4-5.6-16.7-13-3-7.1-1.5-16.7 3.7-22.7 4.5-5.2 10.8-8.2 17.8-7.8l37.9.4zm76.9 34.6c-1.1 4.5-4.8 8.5-9.3 9.3h-52l-1.9-.7c0-14.9-.4-29 .4-43.5h33.1c10.4 1.1 21.9-3.3 26.8 6.3 1.5 3.3 1.1 7.8-1.5 10.4-1.5 2.6-4.8 3-5.6 4.8 4.1 1.1 8.5 4.5 10 8.5v4.9zm-44.5-30.5c-1.1 4.1-1.1 9.7-.4 14.1 7.8-.4 17.8 2.6 23-3.3 1.9-2.2.7-5.9-.4-7.8-5.9-5.2-14.8-1.9-22.2-3zm20 20.4c-7.1-1.1-14.1-.7-20.8-.4-.4 5.6 0 10 .7 15.2 7.4 0 15.6 1.1 22.3-2.2 1.9-1.8 3-4.8 2.2-7.4-.3-2.2-2.2-4-4.4-5.2z"></path></symbol><symbol viewBox="0 0 50 50" id="icon-loyalty-enroll"><path d="M29.1 35.8c1.8-2.3 2.9-5.1 2.9-8.2 0-7.3-5.9-13.2-13.2-13.2S5.6 20.3 5.6 27.6c0 3.1 1.1 6 2.9 8.2-2.7 1.4-5.1 3.3-7.1 5.6-.5.6-.5 1.6.2 2.1.3.2.6.4 1 .4s.8-.2 1.1-.5c2-2.4 4.4-4.1 7.1-5.3 2.2 1.7 5 2.8 8 2.8s5.8-1 8-2.8c2.7 1.2 5.1 3 7.1 5.3.3.4.7.5 1.1.5.3 0 .7-.1 1-.4.6-.5.7-1.5.2-2.1-1.9-2.3-4.4-4.2-7.1-5.6zM8.6 27.6c0-5.6 4.6-10.2 10.2-10.2S29 22 29 27.6s-4.6 10.2-10.2 10.2S8.6 33.2 8.6 27.6zm38.9-13.3h-6.7V7.6c0-.8-.7-1.5-1.5-1.5s-1.5.7-1.5 1.5v6.7H31c-.8 0-1.5.7-1.5 1.5s.7 1.5 1.5 1.5h6.8v6.8c0 .8.7 1.5 1.5 1.5s1.5-.7 1.5-1.5v-6.8h6.7c.8 0 1.5-.7 1.5-1.5s-.7-1.5-1.5-1.5z"></path></symbol><symbol viewBox="0 0 50 50" id="icon-loyalty-reward"><path d="M47.5 41.1h-45c-.8 0-1.5-.7-1.5-1.5V10.4c0-.8.7-1.5 1.5-1.5h45c.8 0 1.5.7 1.5 1.5v29.2c0 .8-.7 1.5-1.5 1.5zM4 38.1h42V11.9H4v26.2z"></path><path class="st0" d="M30.8 22.3c0-1.3-.4-2.4-1.2-3.2-1-.9-2.4-1.5-4.3-1.5h-6.6v14.8h2.6V19.9h3.8c1.9 0 3.1.9 3.1 2.5 0 1.5-1.2 2.5-3 2.5L23 25l5.2 7.5h3.1l-4-5.6c2.1-.7 3.5-2.2 3.5-4.6z"></path></symbol><symbol viewBox="0 0 50 50" id="icon-loyalty-shop"><path d="M46.5 16.6c-.1-.8-.7-1.4-1.5-1.4h-7.5C37.2 8.6 31.6 3.4 25 3.5c-3.3.1-6.3 1.4-8.6 3.8-2.1 2.2-3.2 5-3.3 7.9H5c-.8 0-1.4.6-1.5 1.4L.8 44.9c0 .4.1.8.4 1.2s.7.5 1.1.5h45.4c.4 0 .8-.2 1.1-.5.3-.3.4-.7.4-1.2l-2.7-28.3zM18.6 9.3c1.7-1.8 4-2.8 6.5-2.8 5-.1 9.2 3.8 9.5 8.7H16.1c.1-2.2.9-4.2 2.5-5.9zM3.9 43.5l2.4-25.3h37.3L46 43.5H3.9z"></path></symbol><symbol viewBox="0.9 195 612 387.9" id="icon-mastercard"><path fill="#FFF" d="M605.8 555.8c0 11-8.9 19.9-19.9 19.9H28c-11 0-19.9-8.9-19.9-19.9V222c0-11 8.9-19.9 19.9-19.9h557.9c11 0 19.9 8.9 19.9 19.9v333.8z"></path><path fill="#D0D2D3" d="M585.9 582.8H28C13.1 582.8.9 570.7.9 555.7V222c0-14.9 12.1-27 27.1-27h557.9c14.9 0 27 12.1 27 27.1v333.7c0 14.9-12.1 27-27 27zM28 209.2c-7 0-12.8 5.7-12.8 12.8v333.7c0 7.1 5.7 12.8 12.8 12.8h557.9c7 0 12.8-5.7 12.8-12.8V222c0-7.1-5.7-12.8-12.8-12.8H28z"></path><g fill-rule="evenodd" clip-rule="evenodd"><circle fill="#FAB12F" cx="380.3" cy="389" r="109.7"></circle><circle fill="#EA2030" cx="233.3" cy="388.7" r="109.7"></circle><path fill="#FAB12F" d="M294.1 321.2h58.3v-5.9h-53.3l-5 5.9m-8.8 13.3h67.1v-6h-63.6l-3.5 6m-6.5 13.2h73.6v-6h-71l-2.6 6m-4.5 13.3h78.1v-6h-76.2l-1.9 6m2.6 64h75.7v-5.9h-77.5l1.8 5.9m5.6 13.3h70.1v-6h-72.9l2.8 6m7.9 13.2h62.2v-5.9h-66l3.8 5.9m10.8 13.3h51.4v-6H296l5.2 6m-29.5-90.6h80.7v-6h-79.6l-1.1 6m49.2 37.6h30.8v-6H322l-1.1 6m2.4-13.2h28.4v-6h-27.3l-1.1 6m-53.6-6h8v6H270l-.3-6"></path><path fill="#FFF" d="M254.7 385.4c-2.7-.2-5.3-.9-8.1-.7-2.2.1-6.2.3-6.8 3.1-.6 3.1 3.7 4.4 5.8 5.1 2.7.9 5.5 1.8 7.2 4.3 1.6 2.3 1.6 5.4 1.3 8.1-.4 2.9-1.5 5.7-3.8 7.7-4.5 3.9-10.6 3.7-16.2 3.7-2.7 0-5.5-.2-8.1-.9-.7-.2-1.3-.4-1.9-.6-.7-.2-.4-.4-.3-1.1.4-2 .8-3.9 1.2-5.9.1-.5.2-.9.3-1.4 2.4.5 4.7 1.1 7.1 1.4 2.4.3 5.3.7 7.6-.1 2.3-.8 3.7-4.3 1.7-6.1-.9-.8-2.2-1.3-3.3-1.7-1.2-.5-2.5-.9-3.7-1.5-2.3-1-4.5-2.5-5.6-4.9-1.1-2.5-1-5.3-.5-8 .5-2.5 1.6-5 3.7-6.7 2-1.6 4.6-2.4 7-2.8 5.1-.8 10.5-.6 15.6.3.6.1 1.1.2 1.7.3-.6 2.8-1.2 5.6-1.9 8.4zm8.8-17.5h10.3l-1.5 9h6.2c-.2 1.6-.5 3.1-.7 4.7-.2 1-.3 1.9-.5 2.9-.1.4 0 .6-.3.8-.2.1-.7 0-.9 0h-1.6c-1 0-2.1-.1-3.1-.1-.3 0-.5-.1-.7.1-.2.2-.2 1-.2 1.3-.7 3.9-1.3 7.8-2 11.8-.3 1.9-.6 3.7-1 5.6-.1.8-.4 1.7-.4 2.6.1 1.8 2.2 2.2 3.6 2.3 1.5.2 3.1-.1 4.5-.7-.2 1.2-.4 2.4-.7 3.5-.1.8-.3 1.6-.4 2.4-.1.3-.1.8-.2 1-.5.6-1.9 1-2.7 1.2-1.1.2-2.2.4-3.3.5-2.2.2-4.6 0-6.8-.4-2.3-.5-4.3-1.6-4.6-4.1-.2-1.4 0-2.9.3-4.3.3-1.9.7-3.8 1-5.8 1.2-6.6 2.3-13.3 3.5-19.9l2.4-13.8c-.2-.5-.2-.6-.2-.6zM374.9 379c-3.9-2.1-8.3-3-12.7-2.6-4.5.4-8.3 2.9-10.3 7-2 4-3.4 8.5-3 13.1.4 4.7 3.3 8.6 8 9.7 4 1 9 1.2 12.6-1.4.5-.3.9-.7 1.3-1.1l-1.2 6.9c-.1.9-.1 2.1-.5 2.9-.3.6-1.2 1.2-1.8 1.5-3.4 1.8-8 1.5-11.7 1.3-4-.2-7.9-1.4-11.1-4-3.3-2.7-5.6-6.3-6.6-10.5-1-4-.7-8.3.1-12.3.8-3.8 1.9-7.5 3.7-11 1.8-3.5 4.5-6.6 7.8-8.7 3.3-2.1 7.2-3.1 11.1-3.5 4-.4 8 0 11.9 1 1 .2 1.9.5 2.8.9.4.1.8.2 1.2.4.4.2.3.1.3.5-.1 1.1-.4 2.2-.6 3.3-.3 1.5-.5 3-.8 4.5-.2.7-.3 1.4-.5 2.1zm91.2 37.5h-10.3c.1-.8.3-1.6.4-2.3.1-.7.4-1.4.3-2.1-3.5 4.3-9 5.9-14.3 4.6-5.5-1.4-8.7-6.8-9.7-12.1-1-5.2-.1-10.9 2.2-15.7 2.4-5 6.3-9.2 11.6-11.1 4.9-1.7 11.1-.9 14.4 3.4.4.5.7 1 1 1.5.6-3.5 1.3-7.1 1.9-10.6.2-.9.3-1.8.5-2.7 0-.2.1-1.1.2-1.2.2-.1 1 0 1.2 0h8.8c-.9 5.5-1.9 10.9-2.8 16.4l-4.5 26.1c-.2 1.8-.5 3.8-.9 5.8z"></path><path fill="#FAB12F" d="M449.4 407.5c4.1-.3 7-2.9 8.6-6.6 1.5-3.4 1.9-7.6.7-11.2-.6-1.8-1.9-3.5-3.8-3.9-1.8-.4-3.9.1-5.4 1.2-3 2.2-4.6 6.1-5.2 9.7-.3 2.2-.2 4.7.6 6.8.4 1 .9 2 1.7 2.7.8.9 1.7 1.1 2.8 1.3z"></path><path fill="#FFF" d="M221.9 408.3c-.5 2.5-.9 5-1.4 7.6-.2.9-.3.7-1.2.7H211c.3-1.5.3-3 .7-4.5-3.8 4.4-10.9 6.1-16.4 4.5-3-.9-5.3-2.9-6.5-5.8-1.1-2.8-1-6.1-.1-8.9 2-6 7.5-9.3 13.5-10 2.8-.4 5.7-.7 8.5-.6.7 0 1.5 0 2.2.1.2 0 .8.2 1 .1.2-.1.3-.7.3-.9.4-1.4.3-2.7-.8-3.9-2-2.2-5.8-1.7-8.5-1.6-3 .2-6.2.4-9.1 1.3-.7.2-1.3.4-1.9.8l2.1-7.2c.1-.5.2-1 .4-1.4.2-.4.2-.4.8-.6 1-.4 1.9-.6 2.9-.8 4.1-.9 8.5-.8 12.7-.6 4 .2 8.3 1.7 10.9 4.9 1.4 1.6 2 3.8 1.9 5.9-.1 1.5-.5 3.1-.8 4.6-.8 5.3-1.8 10.8-2.9 16.3z"></path><path fill="#EA2030" d="M213 398.6c-.1-1.5-6-.3-6.9-.1-2.2.6-4.9 2-5.9 4.1-1.2 2.3-.3 5.4 2.6 5.6 2.5.2 5.3-.5 7.3-2.1 2.1-1.8 2.4-4.8 2.9-7.5z"></path><path fill="#FFF" d="M144 416.5h-10.1l8.4-48.6h17.5l1.7 28.8 12.1-28.8h18.3l-8.6 48.6h-10.1l6.4-36.4h-.4l-15.1 36.4h-11.3l-.1-1.5-1.9-33.1-.1-1.8h-.6m255.6 28.2c-.5 2.5-.9 5-1.4 7.6-.2.9-.3.7-1.2.7h-8.3c.1-1.4-.1-2.9.2-4.3-3.9 4.5-11.1 6-16.6 4-5.9-2.1-7.5-9.1-5.7-14.6 1.9-5.9 7.6-9.3 13.6-9.9 2.8-.3 5.7-.7 8.5-.5.7 0 1.4 0 2.1.1.2 0 .8.2 1 .1.2-.1.2-.7.2-.9.2-1.5.2-2.7-.9-3.8-1.1-1.2-2.5-1.5-4-1.5-1.5-.1-3-.1-4.5 0-3 .2-6.1.4-8.9 1.3-.7.2-1.2.4-1.8.8l2.1-7.2c.1-.5.2-1 .4-1.4.2-.4.2-.4.7-.6.9-.4 1.9-.6 2.9-.8 4.1-.8 8.4-.8 12.6-.6 4 .2 8.4 1.7 11 4.9 1.4 1.6 2.1 3.8 1.9 5.9-.1 1.5-.5 3.1-.8 4.6-.9 5.1-2 10.6-3.1 16.1z"></path><path fill="#FAB12F" d="M396.8 398.6c-.3-1.6-5.7-.3-6.7-.1-2.3.5-4.9 1.8-5.9 4s-.5 5.4 2.3 5.7c2.5.3 5.3-.5 7.3-2 2.4-1.8 2.7-4.7 3-7.6z"></path><path fill="#FFF" d="M408.5 416.5h9.7c.5 0 .6.1.8-.2.3-.4.2-1.4.3-1.9l.6-3.3c.5-2.7 1-5.5 1.5-8.2.6-3.3.9-6.9 2-10.1 1.3-3.8 4.3-6 8.2-6.7.6-.1 1.1-.2 1.8-.2.3 0 1.1.1 1.3 0 .3-.3.4-1.9.5-2.3.4-2.4.8-4.8 1.3-7.2-2.5.2-4.7.7-6.8 2.1-1.9 1.3-3.4 3.1-4.7 5 .4-2.2.7-4.5 1.1-6.7h-8.3c-.4 0-1.7-.2-2 0-.3.2-.3 1-.3 1.3-.2 1.4-.5 2.7-.7 4.1-1.6 8.9-3.1 17.8-4.7 26.8-.7 2.5-1.2 5-1.6 7.5zm-98.1 0h10c.5 0 .5.1.7-.3.3-.5.2-1.4.3-2l.6-3.6c.5-2.9 1-5.9 1.5-8.8.3-2 .7-4 1-6 .2-1.5.5-2.9 1.1-4.3 1.6-3.4 5.8-5.1 9.4-4.9.4 0 .7.2.9 0 .2-.3.3-1.1.3-1.4.2-1 .5-2 .8-2.9.7-2.1 1.5-4 2.8-5.7-4.1-1-8.4 1-11 4.1-.8.9-1.5 1.9-2.2 2.9.4-2.2.9-4.5 1.3-6.7h-8.3c-.5 0-1.8-.2-2.2 0-.3.2-.3.9-.3 1.2-.2 1.3-.5 2.7-.7 4-1.6 9-3.1 17.9-4.7 26.9-.4 2.5-.8 5-1.3 7.5zm1.2-27.9c-.5-3.8-1.6-7.1-4.6-9.5-2.8-2.2-6.5-3-10-3.1-3.6-.1-7.3.5-10.5 2.1-3 1.5-5.6 4-7.3 6.9-1.8 3.1-2.8 6.7-3.1 10.2-.3 3.5-.3 7.2.9 10.5 2.6 7.1 9.9 10.1 16.9 10.6 3.3.2 6.9.2 10.1-.5 1-.2 3.6-.8 3.9-1.8.3-1 .3-2.1.5-3.1l.6-3.9.3-1.8c-1.8 1-3.6 2-5.6 2.5-2 .5-4 .6-6.1.6-1.9-.1-4-.2-5.8-.9-1.8-.7-3.3-2.1-4.3-3.8-.5-.8-.8-1.7-1-2.7 0-.4-.2-1.1 0-1.4.2-.4-.1-.1.3-.2.6-.2 1.5 0 2.1 0h20.3c.2 0 1.2.1 1.3 0 .2-.2.1-1.7.2-2 .1-.5.2-1 .3-1.6.5-2.4.6-4.7.6-7.1zm-10.1 3.4H288c.1-2.8 2.2-6.1 4.8-7.2 2.8-1.2 6.2-.4 7.9 2.2.9 1.5 1 3.3.8 5z"></path></g></symbol><symbol viewBox="0 0 32 9" id="icon-paypal-logo"><style><![CDATA[.st0{fill:#010101}.st1,.st2{fill-rule:evenodd;clip-rule:evenodd;fill:#fff}.st2{fill:#144ba0}.st3{fill:#fecf0c}.st4{fill:#5b3c18}.st5{fill:#fff}.st6{fill:#d1d3d4}.st7{fill:#0a67b2}.st8{fill:#faa634}.st9{fill:#ed1c24}.st10{fill:#faa61a}.st11{fill:#0078a9}.st12{fill:#03a550}.st13{fill:#0c72ba}.st14{fill:#eb2227}.st15{fill:#f58220}.st16{fill:#14467a}.st17{fill:#0078bf}.st18{fill:#005189}.st19{fill:#ed7220}.st20{fill:#1e439b}.st21{fill:#a7a9ac}]]></style><path class="st16" d="M17.5 1.6h-1.2c-.2 0-.5.2-.6.4 0 0-1.4 2.4-1.5 2.6-.1.1-.1 0-.2 0 0-.1-.4-2.6-.4-2.6 0-.2-.3-.4-.5-.4h-.9c-.2 0-.3.2-.3.4 0 0 .7 3.7.8 4.6.1.5 0 .6 0 .6l-.9 1.5c0 .1 0 .3.2.3h1c.2 0 .5-.2.6-.4l3.8-6.5s.4-.5.1-.5zM6.3 1C6.2.7 6 .5 5.8.4 5.6.3 5.3.2 5 .1 4.6 0 4.3 0 3.8 0h-2c-.2 0-.4.2-.4.4L0 6.2c0 .2.1.4.3.4h1c.2 0 .4-.2.5-.4l.3-1.4c0-.2.2-.4.5-.4h.3c1.2 0 2.1-.2 2.7-.7.7-.5 1-1.1 1-1.9-.1-.3-.2-.6-.3-.8zM4.2 2.9c-.2.2-.6.3-1.2.3h-.2c-.2 0-.3-.2-.3-.4l.3-1.2c0-.2.3-.4.5-.4h.3c.4 0 .6.1.8.2.2.1.3.3.3.6 0 .4-.2.7-.5.9zm6.7-1.1c-.3-.2-.9-.3-1.7-.3-.4 0-.8 0-1.2.1-.3 0-.3.1-.5.1-.3.1-.3.4-.3.4l-.2.5c0 .3.1.3.2.3.2 0 .2-.1.6-.2.3-.1.6-.1.9-.1.4 0 .7 0 .9.1.2.1.3.2.3.4v.1s0 .1-.1.1c-.5 0-.9.1-1.4.2-.6.1-1 .2-1.3.4-.4.1-.7.3-.9.6-.1.3-.2.6-.2 1s.1.7.4.9c.3.2.6.3 1 .3.3 0 .5 0 .6-.1.1 0 .3-.1.5-.2.1-.1.3-.1.4-.2s.2-.2.4-.2v.2c0 .2.1.3.3.4h.8c.2 0 .4-.2.4-.4l.7-3v-.4c0-.5-.2-.8-.6-1zM9.6 4.4c0 .1-.1.6-.2.8 0 .1-.1.2-.2.2-.1.1-.2.1-.3.2-.2.1-.4.1-.5.1-.2 0-.4 0-.5-.1-.2-.1-.3-.2-.3-.4s0-.3.1-.5c.2 0 .3-.1.5-.2s.4-.1.6-.1c.2 0 .7-.1.7-.1.1 0 .1 0 .1.1z"></path><path class="st17" d="M28.4 1.8c-.4-.2-.9-.3-1.7-.3-.4 0-.8 0-1.2.1-.3 0-.3.1-.5.1-.4.1-.4.4-.4.4l-.1.5c-.1.3.1.3.2.3.2 0 .2-.1.6-.2.3-.1.6-.1.9-.1.4 0 .7 0 .9.1.2.1.3.2.3.4v.1s0 .1-.1.1c-.5 0-.9.1-1.4.2-.5.1-.9.2-1.2.3-.4.2-.6.4-.8.7-.2.3-.3.6-.3 1s.1.7.4.9c.3.2.6.3 1 .3.3 0 .5 0 .6-.1.1 0 .3-.1.5-.2.1-.1.3-.1.4-.2.1-.1.2-.2.4-.2v.2c0 .2.1.3.3.4h.8c.2 0 .4-.2.4-.4l.7-3v-.4c-.2-.5-.3-.8-.7-1zM27 4.4c0 .1-.1.6-.2.8 0 .1-.1.2-.2.2-.1.1-.2.1-.4.2s-.3.1-.5.1-.4 0-.5-.1c-.1-.1-.2-.2-.2-.4s0-.3.1-.5c.1-.1.2-.2.4-.3.2-.1.4-.1.6-.1.2 0 .7-.1.7-.1.2.1.3.1.2.2zM23.8 1c-.1-.2-.3-.4-.5-.6-.2-.1-.5-.2-.8-.3-.4 0-.8-.1-1.2-.1h-2c-.2 0-.4.2-.5.4l-1.4 5.9c0 .2.1.4.3.4h1c.2 0 .4-.2.5-.4l.3-1.4c0-.2.3-.4.5-.4h.3c1.2 0 2.1-.2 2.7-.7.7-.5 1-1.1 1-1.9-.1-.4-.1-.7-.2-.9zm-2.1 1.9c-.3.2-.7.3-1.2.3h-.2c-.2 0-.3-.2-.3-.4l.3-1.2c0-.2.3-.4.5-.4h.3c.4 0 .6.1.8.2.1.2.2.3.2.6 0 .4-.1.7-.4.9zm10-2.8h-.9c-.2 0-.4.1-.4.3v.2L29.1 6c0 .1 0 .2-.1.2 0 .2.1.3.3.4h.9c.2 0 .4-.1.4-.3L32 .4c0-.2-.1-.3-.3-.3z"></path></symbol><symbol viewBox="0.9 195 612 387.9" id="icon-paypal"><path fill="#FFF" d="M605.8 555.8c0 11-8.9 19.9-19.9 19.9H28c-11 0-19.9-8.9-19.9-19.9V222c0-11 8.9-19.9 19.9-19.9h557.9c11 0 19.9 8.9 19.9 19.9v333.8z"></path><path fill="#D0D2D3" d="M585.9 582.8H28C13.1 582.8.9 570.7.9 555.7V222c0-14.9 12.1-27 27.1-27h557.9c14.9 0 27 12.1 27 27.1v333.7c0 14.9-12.1 27-27 27zM28 209.2c-7 0-12.8 5.7-12.8 12.8v333.7c0 7.1 5.7 12.8 12.8 12.8h557.9c7 0 12.8-5.7 12.8-12.8V222c0-7.1-5.7-12.8-12.8-12.8H28z"></path><path fill="#336698" d="M468.7 354c-4.8-2.7-12.2-4-22.4-4-5 0-10.1.4-15.2 1.2-3.7.6-4.1.7-6.4 1.2-4.8 1-5.5 5.8-5.5 5.8l-1.5 6.3c-.9 4 1.4 3.9 2.4 3.5 2.1-.6 3.2-1.3 7.5-2.2 4.1-.9 8.3-1.6 11.8-1.6 5 0 8.8.6 11.4 1.6 2.5 1.1 3.8 3 3.8 5.7 0 .6 0 1.2-.2 1.8-.2.5-.6 1-1.8 1.1-7.2.4-12.3 1.1-18.5 2-6.1.9-11.5 2.3-15.9 4.4-4.8 2.1-8.3 4.9-10.8 8.5-2.4 3.6-3.6 8-3.6 13.1 0 4.9 1.7 8.8 5.1 11.9 3.4 3 7.9 4.5 13.2 4.5 3.4 0 6-.3 7.9-.7 1.9-.5 3.9-1.1 6-2.1 1.6-.7 3.3-1.6 5.2-2.9 1.8-1.2 3.1-2.1 4.7-3.2l.1.1-.5 2c-.5 2.4.9 4.5 3.3 4.7h11.7c.1 0 .1 0 .2-.1 2.5-.3 4.8-2.3 5.4-4.7l9.2-39.5c.2-.9.4-2 .5-3.2.1-1.2.3-2.3.2-3-.1-5.4-2.5-9.5-7.3-12.2zm-22.2 47.1c-1.6 1-3.2 1.8-4.9 2.5-2.3.9-4.5 1.4-6.5 1.4-3.1 0-5.5-.4-7.1-1.4-1.6-.9-2.5-2.5-2.4-4.7 0-2.6.6-4.6 1.8-6.1 1.2-1.5 3.1-2.7 5.4-3.6 2.3-.8 5.1-1.4 8.3-1.9 2.9-.4 8.5-1 9.2-1 .7 0 1.2-.4.9 1.5-.1.8-1.8 7.5-2.5 10.6-.4 1.1-1.6 2.4-2.2 2.7z"></path><path fill="#1C3664" d="M311.1 350.9c-2.7 0-6.2 2.2-7.9 4.8 0 0-18 30.8-19.7 33.9-1 1.7-1.9.6-2.1 0-.1-.8-5.6-33.7-5.6-33.7-.6-2.6-3.4-4.9-6.9-4.9h-11.2c-2.7 0-4.4 2.2-3.8 4.8 0 0 8.6 48.6 10.2 60 .8 6.3-.1 7.4-.1 7.4l-11.1 19.4c-1.6 2.6-.7 4.8 2 4.8h13c2.7 0 6.2-2.1 7.9-4.8l50-84.5s4.8-7.2.4-7.2c-3 .1-15.1 0-15.1 0m-157.7 17.2c-3.8 2.8-9 4.2-15.8 4.2h-3.1c-2.7 0-4.4-2.2-3.8-4.8l3.8-16.3c.6-2.6 3.3-4.8 6-4.8h4.1c4.8 0 8.4.8 10.9 2.5 2.4 1.6 3.7 4.1 3.6 7.5 0 5-1.9 8.9-5.7 11.7m27.1-25.1c-1.6-3-3.9-5.5-6.9-7.4-3.1-1.9-6.7-3.2-10.9-4-4.2-.8-9.1-1.1-14.8-1.2h-26.2c-2.7 0-5.4 2.2-6 4.8L98 412c-.6 2.6 1.1 4.8 3.8 4.8h12.6c2.7 0 5.4-2.1 6-4.8l4.3-18.6c.6-2.6 3.3-4.8 6-4.8h3.6c15.3 0 27.2-3.2 35.8-9.4 8.5-6.3 12.8-14.6 12.8-24.9 0-4.5-.8-8.3-2.4-11.3"></path><path fill="#336698" d="M381.2 368.4c-3.8 2.7-9 4.1-15.8 4.1h-3.1c-2.7 0-4.4-2.2-3.8-4.8l3.8-16.3c.6-2.6 3.3-4.8 6-4.7h4.1c4.8 0 8.4.8 10.9 2.4 2.4 1.6 3.6 4.1 3.6 7.5-.1 5.1-2 9-5.7 11.8m27-25.1c-1.6-3-3.9-5.5-6.9-7.4-3.1-1.9-6.7-3.2-10.9-4-4.2-.7-9.1-1.1-14.8-1.2h-26.2c-2.7 0-5.4 2.2-6 4.8l-17.6 76.8c-.6 2.6 1.1 4.8 3.8 4.8h12.6c2.7 0 5.4-2.1 6-4.8l4.3-18.6c.6-2.6 3.3-4.8 6-4.8h3.6c15.4 0 27.3-3.2 35.8-9.4 8.5-6.3 12.8-14.6 12.8-24.9-.1-4.5-.9-8.3-2.5-11.3"></path><path fill="#1C3664" d="M240.9 354c-4.8-2.7-12.2-4-22.4-4-5 0-10.1.4-15.2 1.2-3.7.6-4.1.7-6.4 1.2-4.8 1-5.5 5.8-5.5 5.8l-1.5 6.3c-.9 4 1.4 3.9 2.5 3.5 2.1-.6 3.2-1.2 7.5-2.2 4.1-.9 8.3-1.6 11.8-1.6 5 0 8.8.5 11.4 1.6 2.5 1.1 3.8 3 3.8 5.7 0 .6 0 1.3-.2 1.8s-.6 1-1.8 1.1c-7.2.4-12.3 1.1-18.5 2-6.1.9-11.5 2.3-15.9 4.4-4.8 2.1-8.3 4.9-10.8 8.5-2.4 3.6-3.6 8-3.6 13.1 0 4.9 1.7 8.8 5.1 11.9 3.4 3 7.9 4.5 13.2 4.5 3.4 0 6-.3 7.9-.7 1.9-.5 3.9-1.1 6-2.1 1.6-.7 3.3-1.6 5.2-2.9 1.8-1.2 3.1-2.1 4.7-3.2l.1.1-.5 2v.1c-.5 2.4.9 4.5 3.3 4.7h11.7c.1 0 .1 0 .2-.1 2.5-.3 4.8-2.3 5.4-4.7l9.2-39.5c.2-.9.4-2 .5-3.2.1-1.2.3-2.3.2-3-.2-5.5-2.6-9.7-7.4-12.3zm-22.1 47.1c-1.6 1-3.2 1.8-4.9 2.5-2.3.9-4.5 1.4-6.5 1.4-3.1 0-5.5-.4-7.1-1.4-1.6-.9-2.5-2.5-2.4-4.7 0-2.6.6-4.6 1.8-6.1 1.2-1.5 3.1-2.7 5.3-3.6 2.3-.8 5.1-1.4 8.3-1.9 2.9-.4 8.5-1 9.2-1 .7 0 1.2-.4.9 1.5-.1.8-1.8 7.5-2.5 10.6-.4 1-1.6 2.3-2.1 2.7z"></path><path fill="#336698" d="M512 331.4h-11.2c-2.6 0-5.2 2-5.9 4.5 0 .1-.1.2-.1.3 0 0-.2 1-.6 2.8l-15.5 70.3c-.4 1.6-.6 2.7-.7 2.9-.5 2.4.9 4.5 3.4 4.7H493c2.6 0 5.2-2 5.9-4.5 0-.1.1-.2.1-.2l16.8-76.1c.6-2.6-1.1-4.7-3.8-4.7z"></path></symbol><symbol viewBox="0 0 16 16" id="icon-play"><path class="cls-1" d="M1 16a1 1 0 0 1-1-1V1A1 1 0 0 1 1.45.11l14 7a1 1 0 0 1 0 1.79l-14 7A1 1 0 0 1 1 16zM2 2.62v10.76L12.76 8z"></path></symbol><symbol viewBox="0 0 16 16" id="icon-REVicon_social_snapchat"><path class="st0" d="M15.7 11.8c-1.4-.3-2.6-1.3-3.2-2.7-.1-.2-.1-.4-.1-.6.1-.3.6-.4.9-.5l.2-.1c.5-.2.8-.5.8-.8 0-.3-.2-.5-.5-.6-.1 0-.2-.1-.3-.1-.1 0-.2 0-.3.1-.2.1-.4.2-.7.2-.1 0-.2 0-.3-.1v-.3c.2-1.1.1-2.2-.2-3.3C11.3 1.4 9.7.4 8 .5h-.1c-1.7 0-3.3 1-4 2.5-.3 1.1-.3 2.2-.2 3.2v.4c-.1 0-.2.1-.3.1-.3 0-.5-.1-.7-.2-.1 0-.2-.1-.2-.1-.4 0-.8.3-.9.6 0 .2.1.6.8.9l.3.1c.3.1.7.2.9.5.1.2 0 .4-.1.6-.6 1.4-1.8 2.4-3.2 2.7-.2 0-.3.2-.3.3v.1c.2.4.9.7 2.1.9.1.1.1.2.1.4 0 .1 0 .2.1.4 0 .2.2.3.4.3.1 0 .2 0 .4-.1.3 0 .5-.1.8-.1.2 0 .4 0 .6.1.4.1.8.3 1.2.6.6.5 1.4.8 2.2.9h.2c.8 0 1.6-.3 2.2-.9.3-.3.7-.5 1.1-.6.2 0 .4 0 .6-.1.3 0 .6 0 .9.1h.4c.2 0 .3-.1.4-.3 0-.1.1-.2.1-.4 0-.1.1-.3.1-.4 1.2-.2 1.9-.5 2.1-.9V12c-.1 0-.1-.2-.3-.2z"></path></symbol><symbol viewBox="0 0 483.16 71.54" id="icon-revolve-logo"><path d="M74.06 1.18h51.89V12.1h-39.8v17.97h39.8v10.92h-39.8v18.64h39.8v10.92H74.06V1.18zm357.2 0h51.89V12.1h-39.8v17.97h39.63v10.92h-39.63v18.64h39.63v10.92H431.1V1.18h.16zM30.06 35.6c8.73 0 14.27-4.53 14.27-11.59v-.17c0-7.39-5.37-11.42-14.44-11.42H12.26v58.11H0V1.18h30.9c8.73 0 15.62 2.52 19.98 6.89 3.69 3.69 5.71 8.9 5.71 14.95v.17c0 11.42-6.89 18.31-16.46 20.99l18.64 26.37H44.34L19.82 35.6m192.96.51v-.17C212.78 16.46 227.89 0 249.05 0c21.33 0 36.11 16.12 36.11 35.6v.17c0 19.48-15.11 35.77-36.27 35.77-21.33.17-36.11-15.95-36.11-35.43zm59.78 0v-.17c0-13.44-9.74-24.69-23.51-24.69s-23.34 10.92-23.34 24.52v.17c0 13.44 9.74 24.69 23.51 24.69 13.6-.17 23.34-11.09 23.34-24.52zm29.22-34.93h12.26v58.27h36.44v11.08h-48.7V1.18zm46.52 0h13.44l20.82 53.24 20.82-53.24h13.1l-28.55 69.86h-10.75L348.3 1.18zm-209.75 0h13.44l20.82 53.24 20.82-53.24h13.1l-28.72 69.86h-10.75L138.55 1.18z"></path></symbol><symbol viewBox="-294.9 387.9 19.1 19.1" id="icon-search"><path d="M-275.8 406.1l-5.7-5.7c1.1-1.3 1.8-3 1.8-4.9 0-4.2-3.4-7.6-7.6-7.6s-7.6 3.4-7.6 7.6 3.4 7.6 7.6 7.6c1.8 0 3.6-.7 4.9-1.8l5.7 5.7.9-.9zm-11.5-4.3c-3.5 0-6.3-2.9-6.3-6.4s2.8-6.3 6.3-6.3c3.4 0 6.3 2.9 6.3 6.4s-2.8 6.3-6.3 6.3z"></path></symbol><symbol viewBox="0 0 32 32" id="icon-share"><path d="M14.31 11.17l1.07-1.05v8a.63.63 0 0 0 1.25 0v-8l1.07 1.05a.62.62 0 1 0 .88-.89l-2.13-2.1a.62.62 0 0 0-.88 0l-2.13 2.1a.62.62 0 1 0 .87.89zm9.07 2H19a.62.62 0 0 0 0 1.25h3.73v8.38H9.25v-8.43h3.62a.63.63 0 0 0 0-1.25H8.63a.63.63 0 0 0-.62.63v9.63a.63.63 0 0 0 .63.63h14.74a.63.63 0 0 0 .62-.63v-9.63a.63.63 0 0 0-.62-.63z"></path><path d="M16 1A15 15 0 1 1 1 16 15 15 0 0 1 16 1m0-1a16 16 0 1 0 16 16A16 16 0 0 0 16 0z" fill="#e4e4e4"></path></symbol><symbol viewBox="-293.8 387.8 21.6 19.2" id="icon-shopping-bag"><path d="M-273.5 393.1h-3.8c-.1-1.5-.7-2.8-1.7-3.8s-2.3-1.5-3.8-1.5c-1.5.1-2.8.7-3.8 1.7s-1.4 2.3-1.5 3.6h-4.4l-1.3 13.9h21.6l-1.3-13.9zm-12.3-2.8c.8-.8 1.8-1.2 3.1-1.2 1.1-.1 2.1.3 2.9 1.1s1.3 1.8 1.3 2.9h-8.4c.1-1 .4-2 1.1-2.8zm-6.6 15.5l1-11.4h16.8l1.1 11.4h-18.9z"></path></symbol><symbol viewBox="0 0 16 16" id="icon-social-fb"><path d="M9.9 3.7h2.5v-3H9.9c-2 0-3.7 1.8-3.7 4v1.5H3.7v3.1h2.5v6.1h3.1V9.3h3.1V6.2H9.2V4.6c0-.5.4-.9.7-.9z"></path></symbol><symbol viewBox="0 0 16 16" id="icon-social-gp"><path d="M8.6 1.6H5s-3.6.1-3.6 3.1c0 3.1 3.2 2.7 3.2 2.7v.8c0 .4.4.3.4.9-.2 0-4.4-.1-4.4 2.7 0 2.8 3.7 2.7 3.7 2.7s4.3.2 4.3-3.3c0-2.1-2.4-2.7-2.4-3.6C6.2 6.7 8 6.5 8 4.5c0-1.2-.1-1.9-1-2.3 0-.3 1.6-.1 1.6-.6zm-1.1 9.8c.1 1.1-1.1 2-2.6 2.1-1.5.1-2.7-.7-2.8-1.8-.1-1.1 1.1-2 2.6-2.1 1.4-.1 2.7.7 2.8 1.8zM5.3 6.7c-.9.3-1.9-.5-2.2-1.8-.3-1.2.1-2.4 1-2.7.8-.2 1.8.6 2.2 1.8.3 1.3-.1 2.5-1 2.7zm7.6-2.6V1.6h-.7v2.5H9.6v.7h2.5v2.5h.7V4.8h2.5v-.7h-2.4z"></path></symbol><symbol viewBox="0 0 16 16" id="icon-social-ig"><path d="M15.3 5c0-.8-.2-1.3-.3-1.8-.2-.5-.4-.9-.9-1.3s-.8-.7-1.3-.9c-.5-.2-1-.3-1.8-.3H5c-.8 0-1.4.1-1.8.3-.5.2-.9.4-1.3.9s-.7.8-.9 1.3C.8 3.6.7 4.2.7 5v6c0 .8.2 1.3.3 1.8.2.5.4.9.9 1.3s.8.7 1.3.9c.5.2 1 .3 1.8.3h6c.8 0 1.3-.2 1.8-.3.5-.2.9-.4 1.3-.9s.7-.8.9-1.3c.2-.5.3-1 .3-1.8V8s.1-2.3 0-3zM14 11c0 .7-.2 1.1-.3 1.4-.1.3-.3.6-.6.8s-.5.4-.8.6c-.2.1-.6.2-1.3.2H5c-.7 0-1.1-.2-1.4-.3-.3-.1-.6-.3-.8-.6s-.4-.5-.6-.8c-.1-.2-.2-.6-.2-1.3V5c0-.7.2-1.1.3-1.4.1-.3.3-.6.6-.8s.5-.4.8-.6c.2-.1.6-.2 1.3-.2h6c.7 0 1.1.2 1.4.3.3.1.6.3.8.6s.4.5.6.8c.1.2.2.6.2 1.3v6zM8 4.2C5.9 4.2 4.2 5.9 4.2 8s1.7 3.8 3.8 3.8 3.8-1.7 3.8-3.8S10.1 4.2 8 4.2zm0 6.3c-1.4 0-2.5-1.1-2.5-2.5S6.6 5.5 8 5.5s2.5 1.1 2.5 2.5-1.1 2.5-2.5 2.5zm3.9-7.3c-.5 0-.9.4-.9.9s.4.9.9.9.9-.4.9-.9-.4-.9-.9-.9z"></path></symbol><symbol viewBox="0 0 16 16" id="icon-social-line"><path d="M15.4 7c0-3.3-3.3-6-7.4-6C3.9 1 .6 3.7.6 7c0 3 2.6 5.4 6.2 5.9.2 0 .6.1.6.3.1.2 0 .5 0 .7 0 0-.1.5-.1.6 0 .2-.1.7.6.4.8-.3 4.2-2.5 5.8-4.3 1.2-1.1 1.7-2.3 1.7-3.6zM5.1 8.9H3.6c-.2 0-.4-.2-.4-.4V5.6c0-.2.2-.4.4-.4.3 0 .4.2.4.4v2.5h1.1c.2 0 .4.2.4.4s-.2.4-.4.4zm1.5-.4c0 .2-.2.4-.4.4s-.3-.2-.3-.4V5.6c0-.2.2-.4.4-.4s.4.2.4.4v2.9zm3.6 0c0 .2-.1.3-.3.4h-.1c-.1 0-.2-.1-.3-.2L8 6.7v1.8c0 .2-.2.4-.4.4s-.4-.2-.4-.4V5.6c0-.2.1-.3.3-.4h.1c.1 0 .2.1.3.2l1.5 2V5.6c0-.2.2-.4.4-.4s.4.2.4.4v2.9zm2.3-1.8c.2 0 .4.2.4.4s-.2.4-.4.4h-1.1v.7h1.1c.2 0 .4.2.4.4s-.2.4-.4.4H11c-.2 0-.4-.2-.4-.4v-3c0-.2.2-.4.4-.4h1.5c.2 0 .4.2.4.4s-.2.4-.4.4h-1.1v.7h1.1z"></path></symbol><symbol viewBox="0 0 16 16" id="icon-social-pin"><path d="M13.9 5.1C13.7 2.9 11.6.9 9.2.7 5.5.3 2.1 2.6 2 6.2c0 1.7.5 2.8 2 3.4 1-1-.2-1.7-.3-2.9-.3-3.1 3.3-6 6.5-4.1 2.2 1.3 1.9 7.1-.9 7.6-.5.1-1.2-.1-1.5-.3-1.2-1.2 1.2-3.3.5-5.1-.7-1.5-2.5-.3-2.8 1-.1.8.2 1.4.2 2.1 0 1.5-.9 3.6-1.2 5.1-.1.6-.2 1.8 0 2.4h1c.7-1.2 1.2-3 1.5-4.5.2-.2.3.3.5.4 1.3 1 3.6.4 4.6-.5 1.4-1.2 2-3.7 1.8-5.7z"></path></symbol><symbol viewBox="0 0 16 16" id="icon-social-snapchat"><path d="M15.7 11.8c-1.4-.3-2.6-1.3-3.2-2.7-.1-.2-.1-.4-.1-.6.1-.3.6-.4.9-.5l.2-.1c.5-.2.8-.5.8-.8 0-.3-.2-.5-.5-.6-.1 0-.2-.1-.3-.1-.1 0-.2 0-.3.1-.2.1-.4.2-.7.2-.1 0-.2 0-.3-.1v-.3c.2-1.1.1-2.2-.2-3.3C11.3 1.4 9.7.4 8 .5h-.1c-1.7 0-3.3 1-4 2.5-.3 1.1-.3 2.2-.2 3.2v.4c-.1 0-.2.1-.3.1-.3 0-.5-.1-.7-.2-.1 0-.2-.1-.2-.1-.4 0-.8.3-.9.6 0 .2.1.6.8.9l.3.1c.3.1.7.2.9.5.1.2 0 .4-.1.6-.6 1.4-1.8 2.4-3.2 2.7-.2 0-.3.2-.3.3v.1c.2.4.9.7 2.1.9.1.1.1.2.1.4 0 .1 0 .2.1.4 0 .2.2.3.4.3.1 0 .2 0 .4-.1.3 0 .5-.1.8-.1.2 0 .4 0 .6.1.4.1.8.3 1.2.6.6.5 1.4.8 2.2.9h.2c.8 0 1.6-.3 2.2-.9.3-.3.7-.5 1.1-.6.2 0 .4 0 .6-.1.3 0 .6 0 .9.1h.4c.2 0 .3-.1.4-.3 0-.1.1-.2.1-.4 0-.1.1-.3.1-.4 1.2-.2 1.9-.5 2.1-.9V12c-.1 0-.1-.2-.3-.2z"></path></symbol><symbol viewBox="0 0 16 16" id="icon-social-tumblr"><path d="M10.2 12.8c-.5 0-.9-.1-1.2-.3-.3-.2-.5-.4-.6-.6-.1-.4-.4-1-.4-1.9V7.4h4V4.6H8v-4H6.4c-.1.9-.1 1.1-.4 1.7-.3.5-.6 1.2-1.1 1.6-.5.4-1.1.8-1.7 1v2.6h1.9v4.1c0 .7.1 1.3.2 1.7.2.4.4.8.8 1.1.4.3 1.3.8 1.3.8s.7.3 1.5.3c.7 0 1.3-.1 1.8-.2.6-.1 1.4-.4 2.1-.8V12c-.8.4-1.8.8-2.6.8z"></path></symbol><symbol viewBox="0 0 16 16" id="icon-social-twitter"><path d="M13.7 7.4c.8-.1 1.4-.5 1.6-1-.3.2-1.3.4-1.8.2 0-.1 0-.2-.1-.3-.4-1.5-1.7-2.6-3.1-2.5.1 0 .2-.1.4-.1.1 0 1-.2.9-.5-.1-.3-1.2.2-1.5.3.3-.1.7-.3.8-.6-.4 0-.8.2-1.1.6.1-.2.2-.3.2-.5-1.1.7-1.7 2.2-2.3 3.6-.4-.4-.7-.7-1.1-.9-.9-.5-2-1-3.8-1.7 0 .6.3 1.3 1.3 1.8-.2 0-.6 0-.9.1.1.7.6 1.2 1.7 1.5-.5 0-.8.2-1 .4.2.5.8 1 1.8.9-1.2.5-.5 1.5.4 1.3-1.6 1.6-4.1 1.5-5.5.2 3.7 5.1 11.8 3 13-1.9.9 0 1.4-.3 1.7-.7-.4.1-1.2 0-1.6-.2z"></path></symbol><symbol viewBox="0 0 16 16" id="icon-social-vk"><path d="M14.9 10.7c-.4-.6-.8-.9-1.3-1.4-.3-.2-.6-.5-.6-.8 0-.4.4-.8.6-1.1.5-.7 1-1.1 1.4-1.9.1-.2.5-.9.4-1.2-.2-.3-1.1-.3-1.6-.3-.6 0-1.3-.1-1.7.1-.3.1-.4.7-.6 1-.4.8-.7 1.3-1.1 2-.2.3-.4.7-.8.7-.5-.3-.4-1.1-.4-1.8 0-.6.2-1.5-.1-1.9-.2-.5-1.2-.4-1.9-.4-.8 0-1.5 0-1.8.6.3.2.6.2.8.5.2.3.2 1.1.2 1.7 0 .5 0 1.3-.4 1.4-.3 0-.6-.5-.8-.8-.5-.6-.8-1.2-1.2-2-.2-.3-.4-.9-.6-1-.2-.1-.9 0-1.4 0-.5 0-1.1-.1-1.4.2 0 .6.3 1.1.5 1.5.7 1.4 1.4 2.7 2.4 3.9.9 1.1 1.9 2.2 3.9 2.4.6.1 1.5.1 1.8-.2.3-.5-.1-1.6.6-1.7.4-.1.8.6 1.1.8.4.5.9 1 1.7 1.1h.2c.4.1 2.6.3 2.7-.5-.1-.2-.4-.7-.6-.9z"></path></symbol><symbol viewBox="0 0 32 32" id="icon-social-wanelo"><path d="M0 0h9.1v9.1H0zm11.4 0h9.1v9.1h-9.1zm11.5 0H32v9.1h-9.1zM0 11.4h9.1v9.1H0zm11.4 0h9.1v9.1h-9.1zm11.5 0H32v9.1h-9.1zM0 22.9h9.1V32H0zm11.4 0h9.1V32h-9.1z"></path></symbol><symbol viewBox="0 0 16 16" id="icon-social-wechat"><path d="M10.9 5.8c-.1-.8-.4-1.5-.9-2.1C8.7 2 6.2 1.2 4 2 2.5 2.4 1.3 3.4.8 5.1.3 6.9 1 8.6 2.6 9.8c.3.2.3.3.2.6l-.3 1.2 1.5-.9c.1-.1.3-.1.5-.1.5 0 1 .1 1.5.2-.1-1.4.4-2.6 1.3-3.6 1-.9 2.2-1.3 3.6-1.4zm-7 .1c-.3 0-.6-.3-.6-.6s.3-.6.6-.6.6.3.6.6c.1.3-.2.6-.6.6zm4-1.3c.3 0 .6.3.6.6s-.3.6-.6.6-.6-.3-.6-.6c-.1-.3.2-.6.6-.6zM14.6 8c-1.4-1.8-4.2-2.2-6.2-.9-2.2 1.4-2.4 4.1-.6 5.8 1 .9 2.2 1.3 3.5 1.2.4 0 .9-.3 1.3-.2.4 0 .8.3 1.3.5 0-.1 0-.2-.1-.3-.3-.5-.1-.8.3-1.2 1.5-1.3 1.7-3.4.5-4.9zM9 9.6c-.3 0-.5-.2-.5-.5s.2-.5.5-.5.5.2.5.5-.2.5-.5.5zm3.2 0c-.3 0-.5-.2-.5-.5s.2-.5.5-.5.5.2.5.5-.2.5-.5.5z"></path></symbol><symbol viewBox="0 0 16 16" id="icon-social-weibo"><path d="M11.7 7.8c-.2-.1-.4-.1-.2-.4.2-.6.3-1.1 0-1.5-.5-.7-1.8-.6-3.3 0 0 0-.5.2-.4-.2.3-.7.2-1.3-.1-1.7-.8-.8-3 0-4.8 1.9C1.5 7.3.7 8.8.7 10c0 2.4 3.1 3.9 6.2 3.9 4 0 6.7-2.3 6.7-4.2-.1-1-1-1.7-1.9-1.9zm-4.9 5.3c-2.4.2-4.5-.9-4.7-2.5C2 9 3.8 7.5 6.2 7.3c2.4-.2 4.5.9 4.7 2.5.2 1.6-1.6 3.1-4.1 3.3zm7.6-9.8c-1-1.1-2.4-1.5-3.7-1.2-.3.1-.5.4-.4.7.1.3.4.5.7.4.9-.2 2 .1 2.6.9.7.8.9 1.8.6 2.7-.1.3.1.6.4.7.3.1.6-.1.7-.4.3-1.3 0-2.7-.9-3.8zm-1.7 3.5c.3.1.5-.1.6-.3.2-.6.1-1.3-.4-1.9-.5-.5-1.2-.7-1.8-.6-.3.1-.4.3-.4.6.1.3.3.5.6.4.3-.1.7 0 .9.3.2.3.3.6.2.9-.1.3 0 .5.3.6zM7.1 8.5c-1.2-.3-2.5.3-3 1.3s0 2.2 1.2 2.6c1.2.4 2.6-.2 3.1-1.3s-.1-2.3-1.3-2.6zm-.9 2.7c-.2.4-.7.5-1.1.4-.4-.2-.5-.6-.2-1 .2-.4.7-.5 1.1-.4.3.2.4.6.2 1zm.8-1c-.1.1-.3.2-.4.2-.1-.1-.2-.2-.1-.4.1-.1.3-.2.4-.2.1.1.1.2.1.4z"></path></symbol><symbol viewBox="0 0 16 16" id="icon-social-youtube"><path d="M15.2 5.1s-.1-1-.6-1.5c-.5-.6-1.1-.6-1.4-.6-2.1-.2-5.2-.2-5.2-.2s-3.1 0-5.2.1c-.3.1-.9.1-1.4.7C.9 4 .8 5.1.8 5.1S.6 6.2.6 7.4v1.1c0 1.2.1 2.4.1 2.4s.1 1 .6 1.5c.6.6 1.4.6 1.7.6 1.2.1 5 .1 5 .1s3.1 0 5.2-.2c.3 0 .9 0 1.5-.6.4-.4.6-1.5.6-1.5s.1-1.2.1-2.4v-1c0-1.2-.2-2.3-.2-2.3zM6.5 9.9V5.8l4 2.1-4 2z"></path></symbol><symbol viewBox="0 0 100 100" id="icon-store-credit"><path d="M98 18.3H2c-1.1 0-2 .9-2 2v58c0 1.1.9 2 2 2h96c1.1 0 2-.9 2-2v-58c0-1.1-.9-2-2-2zM60.2 67.5L47.3 50.3h2.2c4.2 0 5.6-.1 6.8-.5 3.2-.9 4.7-3.5 4.7-6 0-2.2-1.3-4.6-3.1-5.4-1.8-.9-3.2-1.1-6-1.1h-8v30.2h-5.5V32.2h12.8c4.5 0 6.9.5 8.6 1.4 4.1 1.9 6.6 6 6.5 10.5 0 4.8-3.2 9.7-9 10.9l9.6 12.6h-6.7z"></path></symbol><symbol viewBox="0.5 206 611.5 382.5" id="icon-union-pay"><path fill="#E03A3E" d="M120.3 206h152.6c21.3 0 34.6 17.4 29.6 38.8l-71.1 305.1c-5 21.3-26.3 38.7-47.7 38.7H31.1c-21.3 0-34.6-17.4-29.6-38.7l71.1-305.1c5-21.4 26.3-38.8 47.7-38.8z"></path><path d="M260.2 206h175.5c21.3 0 11.7 17.4 6.7 38.8l-71.1 305.1c-5 21.3-3.4 38.7-24.8 38.7H171.1c-21.3 0-34.5-17.4-29.5-38.7l71-305.1c5-21.4 26.3-38.8 47.6-38.8z"></path><path fill="#008185" d="M428.8 206h152.6c21.3 0 34.6 17.4 29.6 38.8l-71.1 305.1c-5 21.3-26.3 38.7-47.7 38.7H339.6c-21.4 0-34.6-17.4-29.6-38.7l71-305.1c5.1-21.4 26.4-38.8 47.8-38.8z"></path><path fill-rule="evenodd" clip-rule="evenodd" fill="#FFF" d="M403.3 493h14.4l4.2-13.8h-14.4l-4.2 13.8zm11.5-38.2l-4.9 16.4s5.5-2.8 8.4-3.7c2.9-.7 7.4-1.2 7.4-1.2l3.5-11.4h-14.4v-.1zm7.1-23.5l-4.8 15.7s5.4-2.4 8.3-3.2c3-.8 7.4-1.1 7.4-1.1l3.4-11.4h-14.3zm31.8 0l-18.6 61.6h5l-3.9 12.7h-5l-1.2 3.9h-17.7l1.2-3.9h-36l3.6-11.8h3.6l18.9-62.5 3.8-12.6h18.1l-1.9 6.4s4.8-3.5 9.4-4.6c4.5-1.2 30.7-1.6 30.7-1.6l-3.9 12.5h-6.1v-.1z"></path><path fill="#FFF" d="M461.7 418.7H481l.2 7.2c-.1 1.2.9 1.8 3.2 1.8h3.9l-3.6 11.9h-10.4c-9 .7-12.4-3.2-12.2-7.6l-.4-13.3zm2.6 56.3h-18.4l3.1-10.6h21l3-9.6h-20.7l3.6-11.9h57.7l-3.6 11.9h-19.3l-3 9.6H507l-3.2 10.6h-21l-3.7 4.5h8.5l2.1 13.3c.2 1.3.3 2.2.7 2.7.4.5 3 .7 4.5.7h2.6l-3.9 13h-6.5c-1 0-2.5-.1-4.6-.2-2-.2-3.4-1.3-4.7-2-1.2-.6-3-2.1-3.4-4.5l-2-13.3-9.5 13.1c-3 4.1-7.1 7.3-14.1 7.3h-13.4l3.5-11.6h5.1c1.5 0 2.8-.6 3.7-1.1 1-.4 1.9-.9 2.8-2.4l13.8-19.5zM263 446.1h48.7l-3.6 11.6h-19.5l-3 9.9h19.9l-3.6 12H282l-4.8 16.1c-.6 1.8 4.7 2 6.6 2l10-1.4-4 13.3h-22.4c-1.8 0-3.1-.2-5.1-.7-1.9-.5-2.7-1.3-3.6-2.6-.8-1.3-2.1-2.4-1.2-5.2l6.4-21.3h-11l3.7-12.2h11.1l2.9-9.9h-11l3.4-11.6zm32.8-20.9h20l-3.6 12.1h-27.3l-3 2.6c-1.3 1.2-1.7.7-3.3 1.6-1.5.8-4.8 2.3-9 2.3h-8.7l3.5-11.7h2.6c2.2 0 3.7-.2 4.5-.7.9-.5 1.8-1.8 2.9-3.8l5-9.1h19.9l-3.5 6.7z"></path><path fill-rule="evenodd" clip-rule="evenodd" fill="#FFF" d="M334.1 445.2s5.4-5 14.8-6.6c2.1-.4 15.4-.3 15.4-.3l2-6.7h-28.1l-4.1 13.6zm26.3 5.1h-27.9l-1.7 5.6H355c2.8-.3 3.4.1 3.7-.1l1.7-5.5zm-36.1-31.6h17l-2.5 8.6s5.4-4.3 9.1-5.8c3.7-1.4 12.2-2.7 12.2-2.7l27.5-.1-9.4 31.2c-1.6 5.4-3.4 8.8-4.6 10.4-1 1.6-2.3 3-4.7 4.3-2.3 1.2-4.4 2-6.4 2.1-1.8.1-4.6.2-8.5.2h-26.5l-7.5 24.7c-.7 2.4-1 3.6-.6 4.3.4.6 1.3 1.3 2.5 1.3l11.7-1.1-4 13.5h-13.1c-4.1 0-7.2-.1-9.3-.2-2-.2-4.1 0-5.5-1.1-1.2-1.1-3.1-2.5-3-3.9.1-1.3.7-3.6 1.5-6.6l24.1-79.1z"></path><path fill="#FFF" d="M373.9 469.1l-1.6 7.5c-.7 2.3-1.3 4.1-3 5.6-1.8 1.6-4 3.2-9.2 3.2l-9.4.4-.1 8.5c-.1 2.4.5 2.2.9 2.5.4.4.8.6 1.3.8l3-.2 9-.5-3.7 12.4h-10.4c-7.2 0-12.6-.2-14.4-1.6-1.7-1.1-2-2.5-1.9-4.9l.7-33h16.5l-.2 6.7h4c1.4 0 2.3-.1 2.8-.5s.9-.9 1.1-1.7l1.6-5.3h13v.1zM138.3 303.5c-.6 2.7-11.2 51.6-11.2 51.6-2.3 9.9-3.9 17-9.6 21.5-3.2 2.6-6.9 3.9-11.3 3.9-6.9 0-11-3.5-11.7-10l-.1-2.2 2.1-13.3s11.1-44.5 13.1-50.4c.1-.3.1-.5.2-.7-21.6.2-25.5 0-25.7-.3-.1.4-.7 3.2-.7 3.2L72.1 357l-1 4.3-1.9 13.7c0 4.1.8 7.5 2.4 10.3 5.2 9.1 19.9 10.4 28.3 10.4 10.8 0 20.8-2.3 27.6-6.4 11.8-7 15-17.9 17.7-27.6l1.3-5s11.5-46.3 13.4-52.3c0-.3.1-.5.2-.7-15.7.3-20.3.1-21.8-.2zm63.4 91.8c-7.7-.1-10.4-.1-19.3.3l-.4-.6 2.4-10.2 1.1-4.7c1.6-7.3 3.3-15.7 3.5-18.3.1-1.6.7-5.4-3.7-5.4-1.9 0-3.8.9-5.8 1.8-1.1 3.9-3.3 14.7-4.3 19.7-2.2 10.4-2.4 11.6-3.4 16.8l-.7.7c-7.9-.1-10.6-.1-19.7.3l-.4-.7c1.5-6.2 3-12.5 4.5-18.6 3.8-16.8 4.7-23.2 5.8-31.8l.7-.5c8.9-1.2 11-1.5 20.6-3.5l.8.9-1.4 5.4c1.6-1 3.2-1.9 4.8-2.8 4.5-2.2 9.6-2.9 12.3-2.9 4.2 0 8.8 1.2 10.7 6 1.8 4.3.6 9.7-1.8 20.2l-1.2 5.4c-2.4 11.7-2.9 13.9-4.2 21.9l-.9.6zm31.1 0c-4.6 0-7.6-.1-10.5 0-2.9 0-5.7.2-10 .4l-.3-.4-.3-.4c1.2-4.5 1.8-6 2.4-7.6.6-1.6 1.1-3.2 2.2-7.7 1.3-5.9 2.2-10 2.8-13.6.6-3.5 1-6.4 1.4-9.9l.4-.3.4-.3c4.6-.7 7.5-1.1 10.5-1.5 3-.4 6-1 10.8-1.9l.2.4.1.4c-.9 3.6-1.8 7.3-2.7 11-.9 3.7-1.7 7.3-2.6 11-1.7 7.7-2.4 10.6-2.8 12.7-.4 2-.5 3-1.2 7.1l-.4.3-.4.3zm48.9-27.3c-.4 2-2.1 9.4-4.5 12.5-1.6 2.3-3.6 3.7-5.7 3.7-.6 0-4.4 0-4.5-5.6 0-2.8.5-5.7 1.2-8.7 2-8.9 4.4-16.4 10.5-16.4 4.8 0 5.1 5.5 3 14.5zm20.1.9c2.7-11.8.6-17.3-2-20.7-4-5.1-11.1-6.8-18.4-6.8-4.4 0-14.9.4-23.1 8-5.9 5.4-8.6 12.8-10.2 19.9-1.7 7.2-3.6 20.3 8.4 25.1 3.7 1.6 9 2 12.4 2 8.8 0 17.8-2.4 24.5-9.6 5.2-5.8 7.6-14.4 8.4-17.9zm187.7 27.2c-9.2-.1-11.9-.1-20.5.3l-.6-.7c2.3-8.8 4.7-17.6 6.7-26.5 2.7-11.6 3.3-16.5 4.2-23.2l.7-.6c9.2-1.3 11.7-1.7 21.3-3.5l.3.8c-1.7 7.2-3.5 14.5-5.2 21.8-3.5 15.2-4.8 23-6.2 30.9l-.7.7z"></path><path fill="#FFF" d="M475.6 369c-.4 1.9-2.2 9.4-4.6 12.5-1.6 2.2-5.3 3.6-7.5 3.6-.6 0-4.4 0-4.5-5.6 0-2.7.5-5.6 1.2-8.7 2-8.8 4.4-16.2 10.5-16.2 4.9 0 6.9 5.4 4.9 14.4zm18.3.9c2.7-11.7-8.1-1-9.9-4.9-2.7-6-1-18.3-11.7-22.4-4.1-1.6-13.7.5-22 8-5.8 5.4-8.6 12.7-10.2 19.8-1.7 7.1-3.6 20.1 8.3 24.8 3.8 1.6 7.2 2.1 10.6 1.9 12-.7 21.1-18.7 27.8-25.9 5.4-5.6 6.3 2.2 7.1-1.3zm-139.7 25.4c-7.7-.1-10.3-.1-19.3.3l-.3-.7 2.4-10.2 1.1-4.7c1.7-7.3 3.3-15.7 3.5-18.3.2-1.6.7-5.4-3.7-5.4-1.9 0-3.8.9-5.8 1.8-1.1 3.9-3.3 14.7-4.3 19.7-2.2 10.4-2.3 11.6-3.3 16.8l-.7.7c-7.9-.1-10.6-.1-19.7.3l-.4-.7c1.5-6.2 3-12.5 4.5-18.6 3.8-16.8 4.7-23.2 5.8-31.8l.7-.5c8.9-1.2 11-1.5 20.6-3.5l.8.9-1.4 5.4c1.6-1 3.2-1.9 4.8-2.8 4.5-2.2 9.6-2.9 12.3-2.9 4.2 0 8.8 1.2 10.8 6 1.8 4.3.6 9.7-1.8 20.2l-1.2 5.4c-2.5 11.7-2.9 13.9-4.2 21.9l-1.2.7zm66.5-91.9l-6.4.1c-16.6.2-23.3.1-26-.2-.3 1.2-.7 3.4-.7 3.4l-5.9 27.6s-14.2 58.6-14.9 61.3c14.5-.2 20.4-.2 22.9.1.6-2.7 3.9-19.1 4-19.1 0 0 2.9-12 3-12.5 0 0 .9-1.2 1.8-1.7h1.3c12.5 0 26.6 0 37.7-8.1 7.5-5.6 12.7-13.8 15-23.8.6-2.5 1-5.4 1-8.3 0-3.8-.8-7.6-3-10.6-5.6-8-16.8-8.1-29.8-8.2zm8.4 28.7c-1.3 6.1-5.3 11.2-10.4 13.7-4.2 2.1-9.4 2.3-14.7 2.3h-3.4l.3-1.4s6.3-27.5 6.3-27.4l.2-1.4.1-1.1 2.5.3s13 1.1 13.4 1.2c5 1.9 7.1 7.1 5.7 13.8zm136.2 9.8l-.7-.8c-9.5 1.9-11.2 2.2-19.9 3.4l-.7.5c0 .1-.1.3-.1.4v-.1c-6.5 15-6.3 11.7-11.6 23.5 0-.5 0-.9-.1-1.5l-1.3-25.5-.8-.8c-9.9 1.9-10.2 2.2-19.3 3.4l-.7.6c-.1.3-.1.7-.1 1l.1.1c1.1 5.9.9 4.5 2 13.8.5 4.5 1.2 9.1 1.8 13.6.9 7.5 1.4 11.2 2.5 22.6-6.2 10.2-7.7 14.1-13.6 23.1l.3.8c9-.3 11-.3 17.7-.3l1.5-1.6c4.9-10.8 43-76.2 43-76.2zm-324 6.3c5.1-3.5 5.7-8.4 1.4-10.9-4.3-2.6-11.9-1.8-17 1.8-5.1 3.5-5.7 8.4-1.4 11 4.3 2.4 11.9 1.6 17-1.9z"></path><path fill="#FFF" d="M521.5 419l-7.5 12.8c-2.4 4.4-6.7 7.6-13.7 7.7l-11.9-.2 3.5-11.5h2.3c1.2 0 2.1-.1 2.8-.4.6-.2 1-.7 1.5-1.4l4.4-7h18.6z"></path></symbol><symbol viewBox="0.9 195 612 387.9" id="icon-visa"><path fill="#FFF" d="M605.8 555.8c0 11-8.9 19.9-19.9 19.9H28c-11 0-19.9-8.9-19.9-19.9V222c0-11 8.9-19.9 19.9-19.9h557.9c11 0 19.9 8.9 19.9 19.9v333.8z"></path><path fill="#D0D2D3" d="M585.9 582.8H28C13.1 582.8.9 570.7.9 555.7V222c0-14.9 12.1-27 27.1-27h557.9c14.9 0 27 12.1 27 27.1v333.7c0 14.9-12.1 27-27 27zM28 209.2c-7 0-12.8 5.7-12.8 12.8v333.7c0 7.1 5.7 12.8 12.8 12.8h557.9c7 0 12.8-5.7 12.8-12.8V222c0-7.1-5.7-12.8-12.8-12.8H28z"></path><path d="M283.1 445h-29.2l18.3-112.1h29.2m-72 0L201.5 410l-3.3-16.6-9.8-50.4s-1.2-10.1-13.8-10.1h-46l-.5 1.9s14.1 2.9 30.5 12.8L184 445h30.4l46.5-112.2h-31.5zM459 445h26.8l-23.4-112.2H439c-10.8 0-13.5 8.4-13.5 8.4L382 445h30.4l6.1-16.7h37.1L459 445zm-32.1-39.7l15.3-42 8.6 42h-23.9zm-42.7-45.5l4.2-24.1s-12.9-4.9-26.3-4.9c-14.5 0-48.9 6.3-48.9 37.1 0 29 40.4 29.3 40.4 44.5s-36.2 12.5-48.2 2.9l-4.3 25.2s13 6.3 33 6.3c19.9 0 50-10.3 50-38.4 0-29.2-40.8-31.9-40.8-44.6 0-12.5 28.4-10.9 40.9-4z" fill="#0767B0"></path><path fill="#F9A533" d="M198.2 393.4l-9.8-50.4s-1.2-10.1-13.8-10.1h-46l-.5 1.9s22.1 4.6 43.3 21.8c20.2 16.3 26.8 36.8 26.8 36.8z"></path></symbol><symbol viewBox="0 0 24 24" id="icon-x--thin"><path d="M12.9 12L23.8 1.1c.2-.2.2-.6 0-.9-.2-.2-.6-.2-.9 0L12 11.1 1.1.2C.9 0 .5 0 .2.2c-.2.2-.2.6 0 .9L11.1 12 .2 22.9c-.2.2-.2.6 0 .9.1.1.3.2.4.2s.3-.1.4-.2l11-10.9 10.9 10.9c.1.1.3.2.4.2s.3-.1.4-.2c.2-.2.2-.6 0-.9L12.9 12z"></path></symbol><symbol viewBox="0 0 100 100" id="icon-x-icon"><path d="M100 16.5L83.5 0 50 33.5 16.5 0 0 16.5 33.5 50 0 83.5 16.5 100 50 66.5 83.5 100 100 83.5 66.5 50"></path></symbol></svg>